<?xml version="1.0" encoding="utf-8"?>
<!-- Generator: Adobe Illustrator 21.0.0, SVG Export Plug-In . SVG Version: 6.00 Build 0)  -->
<svg version="1.1" id="Layer_1" xmlns="http://www.w3.org/2000/svg" xmlns:xlink="http://www.w3.org/1999/xlink" x="0px" y="0px"
	 viewBox="0 0 2272 1872" style="enable-background:new 0 0 2272 1872;" xml:space="preserve">
<style type="text/css">
	.st0{fill:#F15D61;}
	.st1{fill:#B54855;}
	.st2{fill:#9A3D4E;}
	.st3{fill:#8E3A4C;}
	.st4{fill:#221F1F;}
	.st5{fill:#3A3535;}
	.st6{fill:#4C4545;}
	.st7{fill:#D0E1C8;}
	.st8{fill:#28644F;}
	.st9{fill:none;stroke:#221F1F;stroke-width:13;stroke-linecap:round;stroke-linejoin:round;stroke-miterlimit:10;}
	.st10{fill:#1D4736;}
	.st11{fill:none;stroke:#221F1F;stroke-width:12;stroke-linecap:round;stroke-linejoin:round;stroke-miterlimit:10;}
</style>
<rect x="0" class="st0" width="2272" height="1872"/>
<g>
	<path class="st1" d="M1249,266.3h-159.3c-410,0-742.4,332.4-742.4,742.4v495.5h1644.1v-495.5C1991.4,598.6,1659,266.3,1249,266.3z"
		/>
	<rect x="790.5" y="399.9" class="st2" width="696" height="421.2"/>
	<rect x="818.8" y="417.1" class="st3" width="639.4" height="363"/>
	<rect x="600.3" y="1179.1" class="st2" width="268.5" height="268.5"/>
	<rect x="897.3" y="1321.4" class="st2" width="268.5" height="126.2"/>
	<rect x="1316.7" y="1321.4" class="st2" width="353.5" height="126.2"/>
	<rect x="1039.6" y="1195.2" class="st2" width="126.2" height="126.2"/>
	<rect x="1053.4" y="1211.2" class="st2" width="98.1" height="98.1"/>
	<rect x="1352.2" y="1240.3" class="st2" width="98.1" height="98.1"/>
	<g>
		<g>
			<rect x="836.4" y="753.9" class="st1" width="21.6" height="17.6"/>
			<rect x="836.4" y="731.2" class="st1" width="21.6" height="17.6"/>
			<rect x="836.4" y="708.5" class="st1" width="21.6" height="17.6"/>
			<rect x="836.4" y="685.9" class="st1" width="21.6" height="17.6"/>
			<rect x="836.4" y="663.2" class="st1" width="21.6" height="17.6"/>
			<rect x="836.4" y="640.6" class="st1" width="21.6" height="17.6"/>
			<rect x="836.4" y="617.9" class="st1" width="21.6" height="17.6"/>
			<rect x="836.4" y="595.2" class="st1" width="21.6" height="17.6"/>
			<rect x="836.4" y="572.6" class="st1" width="21.6" height="17.6"/>
			<rect x="836.4" y="549.9" class="st1" width="21.6" height="17.6"/>
			<rect x="836.4" y="527.3" class="st1" width="21.6" height="17.6"/>
			<rect x="836.4" y="504.6" class="st1" width="21.6" height="17.6"/>
		</g>
		<g>
			<rect x="868.7" y="753.9" class="st1" width="21.6" height="17.6"/>
			<rect x="868.7" y="731.2" class="st1" width="21.6" height="17.6"/>
			<rect x="868.7" y="708.5" class="st1" width="21.6" height="17.6"/>
			<rect x="868.7" y="685.9" class="st1" width="21.6" height="17.6"/>
			<rect x="868.7" y="663.2" class="st1" width="21.6" height="17.6"/>
			<rect x="868.7" y="640.6" class="st1" width="21.6" height="17.6"/>
			<rect x="868.7" y="617.9" class="st1" width="21.6" height="17.6"/>
			<rect x="868.7" y="595.2" class="st1" width="21.6" height="17.6"/>
			<rect x="868.7" y="572.6" class="st1" width="21.6" height="17.6"/>
			<rect x="868.7" y="549.9" class="st1" width="21.6" height="17.6"/>
			<rect x="868.7" y="527.3" class="st1" width="21.6" height="17.6"/>
		</g>
		<g>
			<rect x="901" y="753.9" class="st1" width="21.6" height="17.6"/>
			<rect x="901" y="731.2" class="st1" width="21.6" height="17.6"/>
			<rect x="901" y="708.5" class="st1" width="21.6" height="17.6"/>
			<rect x="901" y="685.9" class="st1" width="21.6" height="17.6"/>
			<rect x="901" y="663.2" class="st1" width="21.6" height="17.6"/>
			<rect x="901" y="640.6" class="st1" width="21.6" height="17.6"/>
			<rect x="901" y="617.9" class="st1" width="21.6" height="17.6"/>
			<rect x="901" y="595.2" class="st1" width="21.6" height="17.6"/>
			<rect x="901" y="572.6" class="st1" width="21.6" height="17.6"/>
		</g>
		<g>
			<rect x="933.3" y="753.9" class="st1" width="21.6" height="17.6"/>
			<rect x="933.3" y="731.2" class="st1" width="21.6" height="17.6"/>
			<rect x="933.3" y="708.5" class="st1" width="21.6" height="17.6"/>
			<rect x="933.3" y="685.9" class="st1" width="21.6" height="17.6"/>
			<rect x="933.3" y="663.2" class="st1" width="21.6" height="17.6"/>
			<rect x="933.3" y="640.6" class="st1" width="21.6" height="17.6"/>
			<rect x="933.3" y="617.9" class="st1" width="21.6" height="17.6"/>
			<rect x="933.3" y="595.2" class="st1" width="21.6" height="17.6"/>
			<rect x="933.3" y="572.6" class="st1" width="21.6" height="17.6"/>
			<rect x="933.3" y="549.9" class="st1" width="21.6" height="17.6"/>
			<rect x="933.3" y="527.3" class="st1" width="21.6" height="17.6"/>
			<rect x="933.3" y="504.6" class="st1" width="21.6" height="17.6"/>
		</g>
		<g>
			<rect x="965.6" y="753.9" class="st1" width="21.6" height="17.6"/>
			<rect x="965.6" y="731.2" class="st1" width="21.6" height="17.6"/>
			<rect x="965.6" y="708.5" class="st1" width="21.6" height="17.6"/>
			<rect x="965.6" y="685.9" class="st1" width="21.6" height="17.6"/>
			<rect x="965.6" y="663.2" class="st1" width="21.6" height="17.6"/>
			<rect x="965.6" y="640.6" class="st1" width="21.6" height="17.6"/>
		</g>
		<g>
			<rect x="997.9" y="753.9" class="st1" width="21.6" height="17.6"/>
			<rect x="997.9" y="731.2" class="st1" width="21.6" height="17.6"/>
			<rect x="997.9" y="708.5" class="st1" width="21.6" height="17.6"/>
			<rect x="997.9" y="685.9" class="st1" width="21.6" height="17.6"/>
			<rect x="997.9" y="663.2" class="st1" width="21.6" height="17.6"/>
			<rect x="997.9" y="640.6" class="st1" width="21.6" height="17.6"/>
			<rect x="997.9" y="617.9" class="st1" width="21.6" height="17.6"/>
			<rect x="997.9" y="595.2" class="st1" width="21.6" height="17.6"/>
			<rect x="997.9" y="572.6" class="st1" width="21.6" height="17.6"/>
		</g>
		<g>
			<rect x="1030.2" y="753.9" class="st1" width="21.6" height="17.6"/>
			<rect x="1030.2" y="731.2" class="st1" width="21.6" height="17.6"/>
			<rect x="1030.2" y="708.5" class="st1" width="21.6" height="17.6"/>
			<rect x="1030.2" y="685.9" class="st1" width="21.6" height="17.6"/>
			<rect x="1030.2" y="663.2" class="st1" width="21.6" height="17.6"/>
			<rect x="1030.2" y="640.6" class="st1" width="21.6" height="17.6"/>
			<rect x="1030.2" y="617.9" class="st1" width="21.6" height="17.6"/>
			<rect x="1030.2" y="595.2" class="st1" width="21.6" height="17.6"/>
			<rect x="1030.2" y="572.6" class="st1" width="21.6" height="17.6"/>
			<rect x="1030.2" y="549.9" class="st1" width="21.6" height="17.6"/>
			<rect x="1030.2" y="527.3" class="st1" width="21.6" height="17.6"/>
			<rect x="1030.2" y="504.6" class="st1" width="21.6" height="17.6"/>
		</g>
		<g>
			<rect x="1062.5" y="753.9" class="st1" width="21.6" height="17.6"/>
			<rect x="1062.5" y="731.2" class="st1" width="21.6" height="17.6"/>
			<rect x="1062.5" y="708.5" class="st1" width="21.6" height="17.6"/>
			<rect x="1062.5" y="685.9" class="st1" width="21.6" height="17.6"/>
			<rect x="1062.5" y="663.2" class="st1" width="21.6" height="17.6"/>
			<rect x="1062.5" y="640.6" class="st1" width="21.6" height="17.6"/>
			<rect x="1062.5" y="617.9" class="st1" width="21.6" height="17.6"/>
			<rect x="1062.5" y="595.2" class="st1" width="21.6" height="17.6"/>
		</g>
		<g>
			<rect x="1094.8" y="753.9" class="st1" width="21.6" height="17.6"/>
			<rect x="1094.8" y="731.2" class="st1" width="21.6" height="17.6"/>
			<rect x="1094.8" y="708.5" class="st1" width="21.6" height="17.6"/>
			<rect x="1094.8" y="685.9" class="st1" width="21.6" height="17.6"/>
			<rect x="1094.8" y="663.2" class="st1" width="21.6" height="17.6"/>
			<rect x="1094.8" y="640.6" class="st1" width="21.6" height="17.6"/>
			<rect x="1094.8" y="617.9" class="st1" width="21.6" height="17.6"/>
			<rect x="1094.8" y="595.2" class="st1" width="21.6" height="17.6"/>
			<rect x="1094.8" y="572.6" class="st1" width="21.6" height="17.6"/>
			<rect x="1094.8" y="549.9" class="st1" width="21.6" height="17.6"/>
		</g>
		<g>
			<rect x="1127.1" y="753.9" class="st1" width="21.6" height="17.6"/>
			<rect x="1127.1" y="731.2" class="st1" width="21.6" height="17.6"/>
			<rect x="1127.1" y="708.5" class="st1" width="21.6" height="17.6"/>
			<rect x="1127.1" y="685.9" class="st1" width="21.6" height="17.6"/>
			<rect x="1127.1" y="663.2" class="st1" width="21.6" height="17.6"/>
			<rect x="1127.1" y="640.6" class="st1" width="21.6" height="17.6"/>
			<rect x="1127.1" y="617.9" class="st1" width="21.6" height="17.6"/>
			<rect x="1127.1" y="595.2" class="st1" width="21.6" height="17.6"/>
			<rect x="1127.1" y="572.6" class="st1" width="21.6" height="17.6"/>
			<rect x="1127.1" y="549.9" class="st1" width="21.6" height="17.6"/>
			<rect x="1127.1" y="527.3" class="st1" width="21.6" height="17.6"/>
			<rect x="1127.1" y="504.6" class="st1" width="21.6" height="17.6"/>
		</g>
		<g>
			<rect x="1159.4" y="753.9" class="st1" width="21.6" height="17.6"/>
			<rect x="1159.4" y="731.2" class="st1" width="21.6" height="17.6"/>
			<rect x="1159.4" y="708.5" class="st1" width="21.6" height="17.6"/>
			<rect x="1159.4" y="685.9" class="st1" width="21.6" height="17.6"/>
			<rect x="1159.4" y="663.2" class="st1" width="21.6" height="17.6"/>
			<rect x="1159.4" y="640.6" class="st1" width="21.6" height="17.6"/>
			<rect x="1159.4" y="617.9" class="st1" width="21.6" height="17.6"/>
			<rect x="1159.4" y="595.2" class="st1" width="21.6" height="17.6"/>
		</g>
		<g>
			<rect x="1191.7" y="753.9" class="st1" width="21.6" height="17.6"/>
			<rect x="1191.7" y="731.2" class="st1" width="21.6" height="17.6"/>
			<rect x="1191.7" y="708.5" class="st1" width="21.6" height="17.6"/>
			<rect x="1191.7" y="685.9" class="st1" width="21.6" height="17.6"/>
			<rect x="1191.7" y="663.2" class="st1" width="21.6" height="17.6"/>
			<rect x="1191.7" y="640.6" class="st1" width="21.6" height="17.6"/>
			<rect x="1191.7" y="617.9" class="st1" width="21.6" height="17.6"/>
			<rect x="1191.7" y="595.2" class="st1" width="21.6" height="17.6"/>
			<rect x="1191.7" y="572.6" class="st1" width="21.6" height="17.6"/>
			<rect x="1191.7" y="549.9" class="st1" width="21.6" height="17.6"/>
			<rect x="1191.7" y="527.3" class="st1" width="21.6" height="17.6"/>
		</g>
		<g>
			<rect x="1224" y="753.9" class="st1" width="21.6" height="17.6"/>
			<rect x="1224" y="731.2" class="st1" width="21.6" height="17.6"/>
			<rect x="1224" y="708.5" class="st1" width="21.6" height="17.6"/>
			<rect x="1224" y="685.9" class="st1" width="21.6" height="17.6"/>
			<rect x="1224" y="663.2" class="st1" width="21.6" height="17.6"/>
			<rect x="1224" y="640.6" class="st1" width="21.6" height="17.6"/>
			<rect x="1224" y="617.9" class="st1" width="21.6" height="17.6"/>
			<rect x="1224" y="595.2" class="st1" width="21.6" height="17.6"/>
			<rect x="1224" y="572.6" class="st1" width="21.6" height="17.6"/>
			<rect x="1224" y="549.9" class="st1" width="21.6" height="17.6"/>
			<rect x="1224" y="527.3" class="st1" width="21.6" height="17.6"/>
			<rect x="1224" y="504.6" class="st1" width="21.6" height="17.6"/>
		</g>
		<g>
			<rect x="1256.3" y="753.9" class="st1" width="21.6" height="17.6"/>
			<rect x="1256.3" y="731.2" class="st1" width="21.6" height="17.6"/>
			<rect x="1256.3" y="708.5" class="st1" width="21.6" height="17.6"/>
			<rect x="1256.3" y="685.9" class="st1" width="21.6" height="17.6"/>
			<rect x="1256.3" y="663.2" class="st1" width="21.6" height="17.6"/>
			<rect x="1256.3" y="640.6" class="st1" width="21.6" height="17.6"/>
			<rect x="1256.3" y="617.9" class="st1" width="21.6" height="17.6"/>
			<rect x="1256.3" y="595.2" class="st1" width="21.6" height="17.6"/>
		</g>
		<g>
			<rect x="1288.6" y="753.9" class="st1" width="21.6" height="17.6"/>
			<rect x="1288.6" y="731.2" class="st1" width="21.6" height="17.6"/>
			<rect x="1288.6" y="708.5" class="st1" width="21.6" height="17.6"/>
			<rect x="1288.6" y="685.9" class="st1" width="21.6" height="17.6"/>
			<rect x="1288.6" y="663.2" class="st1" width="21.6" height="17.6"/>
			<rect x="1288.6" y="640.6" class="st1" width="21.6" height="17.6"/>
			<rect x="1288.6" y="617.9" class="st1" width="21.6" height="17.6"/>
			<rect x="1288.6" y="595.2" class="st1" width="21.6" height="17.6"/>
			<rect x="1288.6" y="572.6" class="st1" width="21.6" height="17.6"/>
			<rect x="1288.6" y="549.9" class="st1" width="21.6" height="17.6"/>
			<rect x="1288.6" y="527.3" class="st1" width="21.6" height="17.6"/>
			<rect x="1288.6" y="504.6" class="st1" width="21.6" height="17.6"/>
		</g>
		<g>
			<rect x="1320.9" y="753.9" class="st1" width="21.6" height="17.6"/>
			<rect x="1320.9" y="731.2" class="st1" width="21.6" height="17.6"/>
			<rect x="1320.9" y="708.5" class="st1" width="21.6" height="17.6"/>
			<rect x="1320.9" y="685.9" class="st1" width="21.6" height="17.6"/>
			<rect x="1320.9" y="663.2" class="st1" width="21.6" height="17.6"/>
			<rect x="1320.9" y="640.6" class="st1" width="21.6" height="17.6"/>
		</g>
		<g>
			<rect x="1353.2" y="753.9" class="st1" width="21.6" height="17.6"/>
			<rect x="1353.2" y="731.2" class="st1" width="21.6" height="17.6"/>
			<rect x="1353.2" y="708.5" class="st1" width="21.6" height="17.6"/>
			<rect x="1353.2" y="685.9" class="st1" width="21.6" height="17.6"/>
			<rect x="1353.2" y="663.2" class="st1" width="21.6" height="17.6"/>
			<rect x="1353.2" y="640.6" class="st1" width="21.6" height="17.6"/>
			<rect x="1353.2" y="617.9" class="st1" width="21.6" height="17.6"/>
			<rect x="1353.2" y="595.2" class="st1" width="21.6" height="17.6"/>
			<rect x="1353.2" y="572.6" class="st1" width="21.6" height="17.6"/>
		</g>
		<g>
			<rect x="1385.5" y="753.9" class="st1" width="21.6" height="17.6"/>
			<rect x="1385.5" y="731.2" class="st1" width="21.6" height="17.6"/>
			<rect x="1385.5" y="708.5" class="st1" width="21.6" height="17.6"/>
			<rect x="1385.5" y="685.9" class="st1" width="21.6" height="17.6"/>
			<rect x="1385.5" y="663.2" class="st1" width="21.6" height="17.6"/>
			<rect x="1385.5" y="640.6" class="st1" width="21.6" height="17.6"/>
			<rect x="1385.5" y="617.9" class="st1" width="21.6" height="17.6"/>
			<rect x="1385.5" y="595.2" class="st1" width="21.6" height="17.6"/>
			<rect x="1385.5" y="572.6" class="st1" width="21.6" height="17.6"/>
			<rect x="1385.5" y="549.9" class="st1" width="21.6" height="17.6"/>
			<rect x="1385.5" y="527.3" class="st1" width="21.6" height="17.6"/>
			<rect x="1385.5" y="504.6" class="st1" width="21.6" height="17.6"/>
		</g>
		<g>
			<rect x="1417.8" y="753.9" class="st1" width="21.6" height="17.6"/>
			<rect x="1417.8" y="731.2" class="st1" width="21.6" height="17.6"/>
			<rect x="1417.8" y="708.5" class="st1" width="21.6" height="17.6"/>
			<rect x="1417.8" y="685.9" class="st1" width="21.6" height="17.6"/>
		</g>
	</g>
	<g>
		<g>
			<g>
				<path class="st4" d="M1915.5,518.2h-128.9c-19,0-34.3,15.4-34.3,34.3V820c0,19,15.4,34.3,34.3,34.3h128.9
					c19,0,34.3-15.4,34.3-34.3V552.5C1949.8,533.6,1934.4,518.2,1915.5,518.2z"/>
				<path class="st5" d="M1905.5,532.2h-109c-16,0-29,13.6-29,30.4V799c0,16.8,13,30.4,29,30.4h109c16,0,29-13.6,29-30.4V562.5
					C1934.5,545.7,1921.5,532.2,1905.5,532.2z"/>
				<path class="st6" d="M1905.5,532.2H1851v297.2h54.5c16,0,29-13.6,29-30.4V562.5C1934.5,545.7,1921.5,532.2,1905.5,532.2z"/>
			</g>
			<g>
				<path class="st5" d="M1993.3,843.5h-333.4c-16.5,0-29.9,13.4-29.9,29.9v541.4c0,16.5,13.4,29.9,29.9,29.9h333.4
					c16.5,0,29.9-13.4,29.9-29.9V873.4C2023.2,856.9,2009.8,843.5,1993.3,843.5z"/>
				<rect x="1657.8" y="866.2" class="st6" width="339.5" height="561"/>
				<rect x="1661.8" y="872.2" class="st4" width="329.6" height="549.6"/>
				<path class="st7" d="M1943.1,909.6h-49.1c-6.9,0-12.5,5.6-12.5,12.5s5.6,12.5,12.5,12.5h49.1c6.9,0,12.5-5.6,12.5-12.5
					S1950,909.6,1943.1,909.6z"/>
			</g>
			<g>
				<g>
					<path class="st4" d="M543.6,518.2H414.7c-19,0-34.3,15.4-34.3,34.3V820c0,19,15.4,34.3,34.3,34.3h128.9
						c19,0,34.3-15.4,34.3-34.3V552.5C578,533.6,562.6,518.2,543.6,518.2z"/>
					<path class="st5" d="M533.7,532.2h-109c-16,0-29,13.6-29,30.4V799c0,16.8,13,30.4,29,30.4h109c16,0,29-13.6,29-30.4V562.5
						C562.7,545.7,549.7,532.2,533.7,532.2z"/>
					<path class="st6" d="M533.7,532.2h-54.5v297.2h54.5c16,0,29-13.6,29-30.4V562.5C562.7,545.7,549.7,532.2,533.7,532.2z"/>
				</g>
				<g>
					<path class="st5" d="M621.5,843.5H288.1c-16.5,0-29.9,13.4-29.9,29.9v541.4c0,16.5,13.4,29.9,29.9,29.9h333.4
						c16.5,0,29.9-13.4,29.9-29.9V873.4C651.4,856.9,638,843.5,621.5,843.5z"/>
					<rect x="285.9" y="866.2" class="st6" width="339.5" height="561"/>
					<rect x="289.9" y="872.2" class="st4" width="329.6" height="549.6"/>
					<path class="st7" d="M571.3,909.6h-49.1c-6.9,0-12.5,5.6-12.5,12.5s5.6,12.5,12.5,12.5h49.1c6.9,0,12.5-5.6,12.5-12.5
						S578.1,909.6,571.3,909.6z"/>
				</g>
			</g>
			<g>
				<rect x="554.2" y="1035.8" class="st8" width="46.2" height="408.9"/>
				<rect x="710.5" y="1035.8" class="st5" width="46.2" height="408.9"/>
				<rect x="1514.5" y="1035.8" class="st5" width="46.2" height="408.9"/>
				<rect x="1681.1" y="1035.8" class="st8" width="46.2" height="408.9"/>
				<rect x="1003.8" y="883.6" class="st4" width="22.4" height="118.7"/>
				<rect x="1257.1" y="883.6" class="st4" width="22.4" height="118.7"/>
				<rect x="554.2" y="990.9" class="st4" width="1173" height="89.8"/>
				<rect x="554.2" y="1055.2" class="st5" width="1173" height="25.5"/>
				<g>
					<rect x="647.3" y="973.1" class="st4" width="15.9" height="22.9"/>
					<rect x="770.3" y="973.1" class="st4" width="15.9" height="22.9"/>
					<rect x="888.7" y="973.1" class="st4" width="15.9" height="22.9"/>
					<rect x="809.5" y="973.1" class="st4" width="15.9" height="22.9"/>
					<rect x="759.6" y="901.3" class="st4" width="153.6" height="77.6"/>
					<path class="st4" d="M666,880.4c-5.9,0-10.7,4.8-10.7,10.7v18.5h21.5v-18.5C676.8,885.2,672,880.4,666,880.4z"/>
					<path class="st4" d="M699.8,880.4c-5.9,0-10.7,4.8-10.7,10.7v18.5h21.5v-18.5C710.6,885.2,705.8,880.4,699.8,880.4z"/>
					<path class="st4" d="M733.6,880.4c-5.9,0-10.7,4.8-10.7,10.7v18.5h21.5v-18.5C744.4,885.2,739.6,880.4,733.6,880.4z"/>
					<path class="st4" d="M767.4,880.4c-5.9,0-10.7,4.8-10.7,10.7v18.5h21.5v-18.5C778.2,885.2,773.3,880.4,767.4,880.4z"/>
					<path class="st4" d="M801.2,880.4c-5.9,0-10.7,4.8-10.7,10.7v18.5H812v-18.5C812,885.2,807.1,880.4,801.2,880.4z"/>
					<path class="st4" d="M835,880.4c-5.9,0-10.7,4.8-10.7,10.7v18.5h21.5v-18.5C845.7,885.2,840.9,880.4,835,880.4z"/>
					<path class="st4" d="M868.8,880.4c-5.9,0-10.7,4.8-10.7,10.7v18.5h21.5v-18.5C879.5,885.2,874.7,880.4,868.8,880.4z"/>
					<path class="st4" d="M902.6,880.4c-5.9,0-10.7,4.8-10.7,10.7v18.5h21.5v-18.5C913.3,885.2,908.5,880.4,902.6,880.4z"/>
					<rect x="627.2" y="901.3" class="st8" width="153.6" height="77.6"/>
					<rect x="627.2" y="921.5" class="st4" width="153.6" height="12.3"/>
				</g>
				<rect x="978.1" y="771.5" class="st4" width="321.9" height="112.1"/>
				<rect x="1279.5" y="758" class="st4" width="37.2" height="16.6"/>
				<rect x="959.5" y="778.7" class="st4" width="37.2" height="16.6"/>
				<rect x="992.1" y="746.5" class="st8" width="295.4" height="81"/>
				<rect x="992.1" y="814.7" class="st7" width="295.4" height="12.8"/>
				<rect x="1004.6" y="758" class="st4" width="269.9" height="49.4"/>
				<rect x="992.1" y="590.1" class="st4" width="295.4" height="160.3"/>
				<rect x="1003.8" y="601.9" class="st7" width="270.7" height="138.1"/>
				<polygon class="st8" points="1274.5,603 1004.1,740 1274.5,740 				"/>
				<rect x="978.1" y="843.5" class="st8" width="321.9" height="40.1"/>
				<rect x="1364.3" y="957.1" class="st4" width="18.5" height="53.7"/>
				<rect x="1573.7" y="957.1" class="st4" width="18.5" height="53.7"/>
				<rect x="1343" y="864.4" class="st4" width="266.1" height="92.7"/>
				<rect x="1343" y="923.9" class="st8" width="266.1" height="33.1"/>
				<g>
					<rect x="1021.4" y="763.2" class="st8" width="20.3" height="8.3"/>
					<rect x="1048.5" y="763.2" class="st8" width="20.3" height="8.3"/>
					<rect x="1075.6" y="763.2" class="st8" width="20.3" height="8.3"/>
					<rect x="1102.6" y="763.2" class="st8" width="20.3" height="8.3"/>
					<rect x="1129.7" y="763.2" class="st8" width="20.3" height="8.3"/>
					<rect x="1156.8" y="763.2" class="st8" width="20.3" height="8.3"/>
					<rect x="1183.9" y="763.2" class="st8" width="20.3" height="8.3"/>
					<rect x="1210.9" y="763.2" class="st8" width="20.3" height="8.3"/>
					<rect x="1238" y="763.2" class="st8" width="20.3" height="8.3"/>
				</g>
				<g>
					<rect x="1021.4" y="774.6" class="st8" width="20.3" height="10.8"/>
					<rect x="1048.5" y="774.6" class="st8" width="20.3" height="10.8"/>
					<rect x="1075.6" y="774.6" class="st8" width="20.3" height="10.8"/>
					<rect x="1102.6" y="774.6" class="st8" width="20.3" height="10.8"/>
					<rect x="1129.7" y="774.6" class="st8" width="20.3" height="10.8"/>
					<rect x="1156.8" y="774.6" class="st8" width="20.3" height="10.8"/>
					<rect x="1183.9" y="774.6" class="st8" width="20.3" height="10.8"/>
					<rect x="1210.9" y="774.6" class="st8" width="20.3" height="10.8"/>
					<rect x="1238" y="774.6" class="st8" width="20.3" height="10.8"/>
				</g>
				<g>
					<rect x="1021.4" y="788.6" class="st8" width="20.3" height="12.5"/>
					<rect x="1048.5" y="788.6" class="st8" width="20.3" height="12.5"/>
					<rect x="1075.6" y="788.6" class="st8" width="20.3" height="12.5"/>
					<rect x="1102.6" y="788.6" class="st8" width="20.3" height="12.5"/>
					<rect x="1129.7" y="788.6" class="st8" width="20.3" height="12.5"/>
					<rect x="1156.8" y="788.6" class="st8" width="20.3" height="12.5"/>
					<rect x="1183.9" y="788.6" class="st8" width="20.3" height="12.5"/>
					<rect x="1210.9" y="788.6" class="st8" width="20.3" height="12.5"/>
					<rect x="1238" y="788.6" class="st8" width="20.3" height="12.5"/>
				</g>
				<path class="st9" d="M967.8,787L967.8,787c-12.4,0-22.4,10-22.4,22.4v189.9h-15.5V959c0-8.9-7.2-16.1-16.1-16.1h-9.2"/>
				<g>
					<g>
						<path class="st7" d="M1571.9,846.8h-191.7c-3.5,0-6.3,2.8-6.3,6.3v51.1h204.2v-51.1C1578.2,849.6,1575.4,846.8,1571.9,846.8z"
							/>
						<path class="st8" d="M1374,908.7v0.5c0,3.2,2.6,5.8,5.8,5.8h0.5h191.7h0.5c3.2,0,5.8-2.6,5.8-5.8v-0.5v-4.5H1374V908.7z"/>
					</g>
					<rect x="1382.6" y="856.5" class="st4" width="186.6" height="41.6"/>
					<g>
						<g>
							<g>
								<path class="st8" d="M1394.7,859.7c0.1-0.1,0.2-0.1,0.4-0.2C1394.9,859.5,1394.8,859.6,1394.7,859.7z"/>
								<path class="st8" d="M1408.1,859.8c0.1,0.1,0.3,0.2,0.4,0.3C1408.4,860,1408.3,859.9,1408.1,859.8z"/>
								<path class="st8" d="M1395.5,859.3c0.1,0,0.2-0.1,0.3-0.1C1395.7,859.3,1395.6,859.3,1395.5,859.3z"/>
								<path class="st8" d="M1394,860.1c0.1-0.1,0.3-0.2,0.4-0.3C1394.3,859.9,1394.1,860,1394,860.1z"/>
								<path class="st8" d="M1409.5,861.3c0.2,0.4,0.4,0.9,0.4,1.4c-0.2,2-1.9,3.5-3.9,3.5h-9.5c-2,0-3.7-1.5-3.9-3.5
									c0.1-0.5,0.2-1,0.4-1.4c-0.3,0.5-0.4,1.1-0.4,1.8v0.8c0,2.2,1.8,3.9,3.9,3.9h9.5c2.2,0,3.9-1.8,3.9-3.9v-0.8
									C1409.9,862.5,1409.8,861.9,1409.5,861.3z"/>
								<path class="st8" d="M1406.8,859.3c0.1,0,0.2,0.1,0.3,0.1C1407,859.3,1406.9,859.3,1406.8,859.3z"/>
								<path class="st8" d="M1407.5,859.5c0.1,0.1,0.3,0.1,0.4,0.2C1407.7,859.6,1407.6,859.5,1407.5,859.5z"/>
								<path class="st8" d="M1408.7,860.2c0.1,0.1,0.3,0.3,0.4,0.4C1408.9,860.5,1408.8,860.4,1408.7,860.2z"/>
								<path class="st8" d="M1409.1,860.7c0.1,0.2,0.3,0.4,0.4,0.6C1409.4,861.1,1409.3,860.9,1409.1,860.7z"/>
								<path class="st8" d="M1393,861.3c0.1-0.2,0.2-0.4,0.4-0.6C1393.3,860.9,1393.1,861.1,1393,861.3z"/>
								<path class="st8" d="M1393.5,860.7c0.1-0.2,0.3-0.3,0.4-0.4C1393.7,860.4,1393.6,860.5,1393.5,860.7z"/>
								<path class="st7" d="M1396.5,866.2h9.5c2,0,3.7-1.5,3.9-3.5c-0.1-0.5-0.2-1-0.4-1.4c0,0,0,0,0,0c-0.1-0.2-0.2-0.4-0.4-0.6
									c0,0,0,0-0.1-0.1c-0.1-0.2-0.3-0.3-0.4-0.4c0,0-0.1-0.1-0.1-0.1c-0.1-0.1-0.3-0.2-0.4-0.3c-0.1-0.1-0.2-0.1-0.3-0.1
									c-0.1-0.1-0.2-0.1-0.4-0.2c-0.1-0.1-0.3-0.1-0.4-0.1c-0.1,0-0.2-0.1-0.3-0.1c-0.2,0-0.5-0.1-0.8-0.1h-9.5
									c-0.3,0-0.5,0-0.8,0.1c-0.1,0-0.2,0.1-0.3,0.1c-0.1,0-0.3,0.1-0.4,0.1c-0.1,0.1-0.3,0.1-0.4,0.2c-0.1,0-0.2,0.1-0.3,0.1
									c-0.1,0.1-0.3,0.2-0.4,0.3c0,0-0.1,0.1-0.1,0.1c-0.1,0.1-0.3,0.3-0.4,0.4c0,0,0,0-0.1,0.1c-0.1,0.2-0.3,0.4-0.4,0.6
									c0,0,0,0,0,0c-0.2,0.4-0.4,0.9-0.4,1.4C1392.8,864.7,1394.5,866.2,1396.5,866.2z"/>
							</g>
							<g>
								<path class="st8" d="M1420.2,859.7c0.1-0.1,0.2-0.1,0.4-0.2C1420.4,859.5,1420.3,859.6,1420.2,859.7z"/>
								<path class="st8" d="M1433.6,859.8c0.1,0.1,0.3,0.2,0.4,0.3C1433.9,860,1433.8,859.9,1433.6,859.8z"/>
								<path class="st8" d="M1421,859.3c0.1,0,0.2-0.1,0.3-0.1C1421.2,859.3,1421.1,859.3,1421,859.3z"/>
								<path class="st8" d="M1419.5,860.1c0.1-0.1,0.3-0.2,0.4-0.3C1419.8,859.9,1419.7,860,1419.5,860.1z"/>
								<path class="st8" d="M1435,861.3c0.2,0.4,0.4,0.9,0.4,1.4c-0.2,2-1.9,3.5-3.9,3.5h-9.5c-2,0-3.7-1.5-3.9-3.5
									c0.1-0.5,0.2-1,0.4-1.4c-0.3,0.5-0.4,1.1-0.4,1.8v0.8c0,2.2,1.8,3.9,3.9,3.9h9.5c2.2,0,3.9-1.8,3.9-3.9v-0.8
									C1435.5,862.5,1435.3,861.9,1435,861.3z"/>
								<path class="st8" d="M1432.3,859.3c0.1,0,0.2,0.1,0.3,0.1C1432.5,859.3,1432.4,859.3,1432.3,859.3z"/>
								<path class="st8" d="M1433,859.5c0.1,0.1,0.3,0.1,0.4,0.2C1433.3,859.6,1433.1,859.5,1433,859.5z"/>
								<path class="st8" d="M1434.2,860.2c0.1,0.1,0.3,0.3,0.4,0.4C1434.5,860.5,1434.3,860.4,1434.2,860.2z"/>
								<path class="st8" d="M1434.6,860.7c0.1,0.2,0.3,0.4,0.4,0.6C1434.9,861.1,1434.8,860.9,1434.6,860.7z"/>
								<path class="st8" d="M1418.6,861.3c0.1-0.2,0.2-0.4,0.4-0.6C1418.8,860.9,1418.7,861.1,1418.6,861.3z"/>
								<path class="st8" d="M1419,860.7c0.1-0.2,0.3-0.3,0.4-0.4C1419.2,860.4,1419.1,860.5,1419,860.7z"/>
								<path class="st7" d="M1422,866.2h9.5c2,0,3.7-1.5,3.9-3.5c-0.1-0.5-0.2-1-0.4-1.4c0,0,0,0,0,0c-0.1-0.2-0.2-0.4-0.4-0.6
									c0,0,0,0-0.1-0.1c-0.1-0.2-0.3-0.3-0.4-0.4c0,0-0.1-0.1-0.1-0.1c-0.1-0.1-0.3-0.2-0.4-0.3c-0.1-0.1-0.2-0.1-0.3-0.1
									c-0.1-0.1-0.2-0.1-0.4-0.2c-0.1-0.1-0.3-0.1-0.4-0.1c-0.1,0-0.2-0.1-0.3-0.1c-0.2,0-0.5-0.1-0.8-0.1h-9.5
									c-0.3,0-0.5,0-0.8,0.1c-0.1,0-0.2,0.1-0.3,0.1c-0.1,0-0.3,0.1-0.4,0.1c-0.1,0.1-0.3,0.1-0.4,0.2c-0.1,0-0.2,0.1-0.3,0.1
									c-0.1,0.1-0.3,0.2-0.4,0.3c0,0-0.1,0.1-0.1,0.1c-0.1,0.1-0.3,0.3-0.4,0.4c0,0,0,0-0.1,0.1c-0.1,0.2-0.3,0.4-0.4,0.6
									c0,0,0,0,0,0c-0.2,0.4-0.4,0.9-0.4,1.4C1418.4,864.7,1420,866.2,1422,866.2z"/>
							</g>
							<g>
								<path class="st8" d="M1445.7,859.7c0.1-0.1,0.2-0.1,0.4-0.2C1446,859.5,1445.8,859.6,1445.7,859.7z"/>
								<path class="st8" d="M1459.2,859.8c0.1,0.1,0.3,0.2,0.4,0.3C1459.4,860,1459.3,859.9,1459.2,859.8z"/>
								<path class="st8" d="M1446.5,859.3c0.1,0,0.2-0.1,0.3-0.1C1446.7,859.3,1446.6,859.3,1446.5,859.3z"/>
								<path class="st8" d="M1445,860.1c0.1-0.1,0.3-0.2,0.4-0.3C1445.3,859.9,1445.2,860,1445,860.1z"/>
								<path class="st8" d="M1460.5,861.3c0.2,0.4,0.4,0.9,0.4,1.4c-0.2,2-1.9,3.5-3.9,3.5h-9.5c-2,0-3.7-1.5-3.9-3.5
									c0.1-0.5,0.2-1,0.4-1.4c-0.3,0.5-0.4,1.1-0.4,1.8v0.8c0,2.2,1.8,3.9,3.9,3.9h9.5c2.2,0,3.9-1.8,3.9-3.9v-0.8
									C1461,862.5,1460.8,861.9,1460.5,861.3z"/>
								<path class="st8" d="M1457.8,859.3c0.1,0,0.2,0.1,0.3,0.1C1458,859.3,1457.9,859.3,1457.8,859.3z"/>
								<path class="st8" d="M1458.5,859.5c0.1,0.1,0.3,0.1,0.4,0.2C1458.8,859.6,1458.7,859.5,1458.5,859.5z"/>
								<path class="st8" d="M1459.7,860.2c0.1,0.1,0.3,0.3,0.4,0.4C1460,860.5,1459.9,860.4,1459.7,860.2z"/>
								<path class="st8" d="M1460.2,860.7c0.1,0.2,0.3,0.4,0.4,0.6C1460.4,861.1,1460.3,860.9,1460.2,860.7z"/>
								<path class="st8" d="M1444.1,861.3c0.1-0.2,0.2-0.4,0.4-0.6C1444.3,860.9,1444.2,861.1,1444.1,861.3z"/>
								<path class="st8" d="M1444.5,860.7c0.1-0.2,0.3-0.3,0.4-0.4C1444.8,860.4,1444.6,860.5,1444.5,860.7z"/>
								<path class="st7" d="M1447.6,866.2h9.5c2,0,3.7-1.5,3.9-3.5c-0.1-0.5-0.2-1-0.4-1.4c0,0,0,0,0,0c-0.1-0.2-0.2-0.4-0.4-0.6
									c0,0,0,0-0.1-0.1c-0.1-0.2-0.3-0.3-0.4-0.4c0,0-0.1-0.1-0.1-0.1c-0.1-0.1-0.3-0.2-0.4-0.3c-0.1-0.1-0.2-0.1-0.3-0.1
									c-0.1-0.1-0.2-0.1-0.4-0.2c-0.1-0.1-0.3-0.1-0.4-0.1c-0.1,0-0.2-0.1-0.3-0.1c-0.2,0-0.5-0.1-0.8-0.1h-9.5
									c-0.3,0-0.5,0-0.8,0.1c-0.1,0-0.2,0.1-0.3,0.1c-0.1,0-0.3,0.1-0.4,0.1c-0.1,0.1-0.3,0.1-0.4,0.2c-0.1,0-0.2,0.1-0.3,0.1
									c-0.1,0.1-0.3,0.2-0.4,0.3c0,0-0.1,0.1-0.1,0.1c-0.1,0.1-0.3,0.3-0.4,0.4c0,0,0,0-0.1,0.1c-0.1,0.2-0.3,0.4-0.4,0.6
									c0,0,0,0,0,0c-0.2,0.4-0.4,0.9-0.4,1.4C1443.9,864.7,1445.5,866.2,1447.6,866.2z"/>
							</g>
							<g>
								<path class="st8" d="M1471.2,859.7c0.1-0.1,0.2-0.1,0.4-0.2C1471.5,859.5,1471.4,859.6,1471.2,859.7z"/>
								<path class="st8" d="M1484.7,859.8c0.1,0.1,0.3,0.2,0.4,0.3C1485,860,1484.8,859.9,1484.7,859.8z"/>
								<path class="st8" d="M1472,859.3c0.1,0,0.2-0.1,0.3-0.1C1472.2,859.3,1472.1,859.3,1472,859.3z"/>
								<path class="st8" d="M1470.6,860.1c0.1-0.1,0.3-0.2,0.4-0.3C1470.8,859.9,1470.7,860,1470.6,860.1z"/>
								<path class="st8" d="M1486.1,861.3c0.2,0.4,0.4,0.9,0.4,1.4c-0.2,2-1.9,3.5-3.9,3.5h-9.5c-2,0-3.7-1.5-3.9-3.5
									c0.1-0.5,0.2-1,0.4-1.4c-0.3,0.5-0.4,1.1-0.4,1.8v0.8c0,2.2,1.8,3.9,3.9,3.9h9.5c2.2,0,3.9-1.8,3.9-3.9v-0.8
									C1486.5,862.5,1486.3,861.9,1486.1,861.3z"/>
								<path class="st8" d="M1483.3,859.3c0.1,0,0.2,0.1,0.3,0.1C1483.5,859.3,1483.4,859.3,1483.3,859.3z"/>
								<path class="st8" d="M1484,859.5c0.1,0.1,0.3,0.1,0.4,0.2C1484.3,859.6,1484.2,859.5,1484,859.5z"/>
								<path class="st8" d="M1485.2,860.2c0.1,0.1,0.3,0.3,0.4,0.4C1485.5,860.5,1485.4,860.4,1485.2,860.2z"/>
								<path class="st8" d="M1485.7,860.7c0.1,0.2,0.3,0.4,0.4,0.6C1485.9,861.1,1485.8,860.9,1485.7,860.7z"/>
								<path class="st8" d="M1469.6,861.3c0.1-0.2,0.2-0.4,0.4-0.6C1469.8,860.9,1469.7,861.1,1469.6,861.3z"/>
								<path class="st8" d="M1470,860.7c0.1-0.2,0.3-0.3,0.4-0.4C1470.3,860.4,1470.1,860.5,1470,860.7z"/>
								<path class="st7" d="M1473.1,866.2h9.5c2,0,3.7-1.5,3.9-3.5c-0.1-0.5-0.2-1-0.4-1.4c0,0,0,0,0,0c-0.1-0.2-0.2-0.4-0.4-0.6
									c0,0,0,0-0.1-0.1c-0.1-0.2-0.3-0.3-0.4-0.4c0,0-0.1-0.1-0.1-0.1c-0.1-0.1-0.3-0.2-0.4-0.3c-0.1-0.1-0.2-0.1-0.3-0.1
									c-0.1-0.1-0.2-0.1-0.4-0.2c-0.1-0.1-0.3-0.1-0.4-0.1c-0.1,0-0.2-0.1-0.3-0.1c-0.2,0-0.5-0.1-0.8-0.1h-9.5
									c-0.3,0-0.5,0-0.8,0.1c-0.1,0-0.2,0.1-0.3,0.1c-0.1,0-0.3,0.1-0.4,0.1c-0.1,0.1-0.3,0.1-0.4,0.2c-0.1,0-0.2,0.1-0.3,0.1
									c-0.1,0.1-0.3,0.2-0.4,0.3c0,0-0.1,0.1-0.1,0.1c-0.1,0.1-0.3,0.3-0.4,0.4c0,0,0,0-0.1,0.1c-0.1,0.2-0.3,0.4-0.4,0.6
									c0,0,0,0,0,0c-0.2,0.4-0.4,0.9-0.4,1.4C1469.4,864.7,1471.1,866.2,1473.1,866.2z"/>
							</g>
							<g>
								<path class="st8" d="M1496.8,859.7c0.1-0.1,0.2-0.1,0.4-0.2C1497,859.5,1496.9,859.6,1496.8,859.7z"/>
								<path class="st8" d="M1510.2,859.8c0.1,0.1,0.3,0.2,0.4,0.3C1510.5,860,1510.3,859.9,1510.2,859.8z"/>
								<path class="st8" d="M1497.5,859.3c0.1,0,0.2-0.1,0.3-0.1C1497.7,859.3,1497.6,859.3,1497.5,859.3z"/>
								<path class="st8" d="M1496.1,860.1c0.1-0.1,0.3-0.2,0.4-0.3C1496.4,859.9,1496.2,860,1496.1,860.1z"/>
								<path class="st8" d="M1511.6,861.3c0.2,0.4,0.4,0.9,0.4,1.4c-0.2,2-1.9,3.5-3.9,3.5h-9.5c-2,0-3.7-1.5-3.9-3.5
									c0.1-0.5,0.2-1,0.4-1.4c-0.3,0.5-0.4,1.1-0.4,1.8v0.8c0,2.2,1.8,3.9,3.9,3.9h9.5c2.2,0,3.9-1.8,3.9-3.9v-0.8
									C1512,862.5,1511.9,861.9,1511.6,861.3z"/>
								<path class="st8" d="M1508.9,859.3c0.1,0,0.2,0.1,0.3,0.1C1509.1,859.3,1509,859.3,1508.9,859.3z"/>
								<path class="st8" d="M1509.6,859.5c0.1,0.1,0.3,0.1,0.4,0.2C1509.8,859.6,1509.7,859.5,1509.6,859.5z"/>
								<path class="st8" d="M1510.8,860.2c0.1,0.1,0.3,0.3,0.4,0.4C1511,860.5,1510.9,860.4,1510.8,860.2z"/>
								<path class="st8" d="M1511.2,860.7c0.1,0.2,0.3,0.4,0.4,0.6C1511.5,861.1,1511.3,860.9,1511.2,860.7z"/>
								<path class="st8" d="M1495.1,861.3c0.1-0.2,0.2-0.4,0.4-0.6C1495.4,860.9,1495.2,861.1,1495.1,861.3z"/>
								<path class="st8" d="M1495.5,860.7c0.1-0.2,0.3-0.3,0.4-0.4C1495.8,860.4,1495.7,860.5,1495.5,860.7z"/>
								<path class="st7" d="M1498.6,866.2h9.5c2,0,3.7-1.5,3.9-3.5c-0.1-0.5-0.2-1-0.4-1.4c0,0,0,0,0,0c-0.1-0.2-0.2-0.4-0.4-0.6
									c0,0,0,0-0.1-0.1c-0.1-0.2-0.3-0.3-0.4-0.4c0,0-0.1-0.1-0.1-0.1c-0.1-0.1-0.3-0.2-0.4-0.3c-0.1-0.1-0.2-0.1-0.3-0.1
									c-0.1-0.1-0.2-0.1-0.4-0.2c-0.1-0.1-0.3-0.1-0.4-0.1c-0.1,0-0.2-0.1-0.3-0.1c-0.2,0-0.5-0.1-0.8-0.1h-9.5
									c-0.3,0-0.5,0-0.8,0.1c-0.1,0-0.2,0.1-0.3,0.1c-0.1,0-0.3,0.1-0.4,0.1c-0.1,0.1-0.3,0.1-0.4,0.2c-0.1,0-0.2,0.1-0.3,0.1
									c-0.1,0.1-0.3,0.2-0.4,0.3c0,0-0.1,0.1-0.1,0.1c-0.1,0.1-0.3,0.3-0.4,0.4c0,0,0,0-0.1,0.1c-0.1,0.2-0.3,0.4-0.4,0.6
									c0,0,0,0,0,0c-0.2,0.4-0.4,0.9-0.4,1.4C1494.9,864.7,1496.6,866.2,1498.6,866.2z"/>
							</g>
							<g>
								<path class="st8" d="M1522.3,859.7c0.1-0.1,0.2-0.1,0.4-0.2C1522.5,859.5,1522.4,859.6,1522.3,859.7z"/>
								<path class="st8" d="M1535.7,859.8c0.1,0.1,0.3,0.2,0.4,0.3C1536,860,1535.9,859.9,1535.7,859.8z"/>
								<path class="st8" d="M1523.1,859.3c0.1,0,0.2-0.1,0.3-0.1C1523.3,859.3,1523.2,859.3,1523.1,859.3z"/>
								<path class="st8" d="M1521.6,860.1c0.1-0.1,0.3-0.2,0.4-0.3C1521.9,859.9,1521.7,860,1521.6,860.1z"/>
								<path class="st8" d="M1537.1,861.3c0.2,0.4,0.4,0.9,0.4,1.4c-0.2,2-1.9,3.5-3.9,3.5h-9.5c-2,0-3.7-1.5-3.9-3.5
									c0.1-0.5,0.2-1,0.4-1.4c-0.3,0.5-0.4,1.1-0.4,1.8v0.8c0,2.2,1.8,3.9,3.9,3.9h9.5c2.2,0,3.9-1.8,3.9-3.9v-0.8
									C1537.6,862.5,1537.4,861.9,1537.1,861.3z"/>
								<path class="st8" d="M1534.4,859.3c0.1,0,0.2,0.1,0.3,0.1C1534.6,859.3,1534.5,859.3,1534.4,859.3z"/>
								<path class="st8" d="M1535.1,859.5c0.1,0.1,0.3,0.1,0.4,0.2C1535.3,859.6,1535.2,859.5,1535.1,859.5z"/>
								<path class="st8" d="M1536.3,860.2c0.1,0.1,0.3,0.3,0.4,0.4C1536.6,860.5,1536.4,860.4,1536.3,860.2z"/>
								<path class="st8" d="M1536.7,860.7c0.1,0.2,0.3,0.4,0.4,0.6C1537,861.1,1536.9,860.9,1536.7,860.7z"/>
								<path class="st8" d="M1520.7,861.3c0.1-0.2,0.2-0.4,0.4-0.6C1520.9,860.9,1520.8,861.1,1520.7,861.3z"/>
								<path class="st8" d="M1521.1,860.7c0.1-0.2,0.3-0.3,0.4-0.4C1521.3,860.4,1521.2,860.5,1521.1,860.7z"/>
								<path class="st7" d="M1524.1,866.2h9.5c2,0,3.7-1.5,3.9-3.5c-0.1-0.5-0.2-1-0.4-1.4c0,0,0,0,0,0c-0.1-0.2-0.2-0.4-0.4-0.6
									c0,0,0,0-0.1-0.1c-0.1-0.2-0.3-0.3-0.4-0.4c0,0-0.1-0.1-0.1-0.1c-0.1-0.1-0.3-0.2-0.4-0.3c-0.1-0.1-0.2-0.1-0.3-0.1
									c-0.1-0.1-0.2-0.1-0.4-0.2c-0.1-0.1-0.3-0.1-0.4-0.1c-0.1,0-0.2-0.1-0.3-0.1c-0.2,0-0.5-0.1-0.8-0.1h-9.5
									c-0.3,0-0.5,0-0.8,0.1c-0.1,0-0.2,0.1-0.3,0.1c-0.1,0-0.3,0.1-0.4,0.1c-0.1,0.1-0.3,0.1-0.4,0.2c-0.1,0-0.2,0.1-0.3,0.1
									c-0.1,0.1-0.3,0.2-0.4,0.3c0,0-0.1,0.1-0.1,0.1c-0.1,0.1-0.3,0.3-0.4,0.4c0,0,0,0-0.1,0.1c-0.1,0.2-0.3,0.4-0.4,0.6
									c0,0,0,0,0,0c-0.2,0.4-0.4,0.9-0.4,1.4C1520.5,864.7,1522.1,866.2,1524.1,866.2z"/>
							</g>
						</g>
						<g>
							<g>
								<path class="st8" d="M1394.7,872.6c0.1-0.1,0.2-0.1,0.4-0.2C1394.9,872.5,1394.8,872.6,1394.7,872.6z"/>
								<path class="st8" d="M1408.1,872.8c0.1,0.1,0.3,0.2,0.4,0.3C1408.4,873,1408.3,872.9,1408.1,872.8z"/>
								<path class="st8" d="M1395.5,872.3c0.1,0,0.2-0.1,0.3-0.1C1395.7,872.3,1395.6,872.3,1395.5,872.3z"/>
								<path class="st8" d="M1394,873.1c0.1-0.1,0.3-0.2,0.4-0.3C1394.3,872.9,1394.1,873,1394,873.1z"/>
								<path class="st8" d="M1409.5,874.3c0.2,0.4,0.4,0.9,0.4,1.4c-0.2,2-1.9,3.5-3.9,3.5h-9.5c-2,0-3.7-1.5-3.9-3.5
									c0.1-0.5,0.2-1,0.4-1.4c-0.3,0.5-0.4,1.1-0.4,1.8v0.8c0,2.2,1.8,3.9,3.9,3.9h9.5c2.2,0,3.9-1.8,3.9-3.9v-0.8
									C1409.9,875.4,1409.8,874.8,1409.5,874.3z"/>
								<path class="st8" d="M1406.8,872.2c0.1,0,0.2,0.1,0.3,0.1C1407,872.3,1406.9,872.3,1406.8,872.2z"/>
								<path class="st8" d="M1407.5,872.4c0.1,0.1,0.3,0.1,0.4,0.2C1407.7,872.6,1407.6,872.5,1407.5,872.4z"/>
								<path class="st8" d="M1408.7,873.2c0.1,0.1,0.3,0.3,0.4,0.4C1408.9,873.5,1408.8,873.3,1408.7,873.2z"/>
								<path class="st8" d="M1409.1,873.7c0.1,0.2,0.3,0.4,0.4,0.6C1409.4,874.1,1409.3,873.9,1409.1,873.7z"/>
								<path class="st8" d="M1393,874.3c0.1-0.2,0.2-0.4,0.4-0.6C1393.3,873.9,1393.1,874.1,1393,874.3z"/>
								<path class="st8" d="M1393.5,873.6c0.1-0.2,0.3-0.3,0.4-0.4C1393.7,873.3,1393.6,873.5,1393.5,873.6z"/>
								<path class="st7" d="M1396.5,879.2h9.5c2,0,3.7-1.5,3.9-3.5c-0.1-0.5-0.2-1-0.4-1.4c0,0,0,0,0,0c-0.1-0.2-0.2-0.4-0.4-0.6
									c0,0,0,0-0.1-0.1c-0.1-0.2-0.3-0.3-0.4-0.4c0,0-0.1-0.1-0.1-0.1c-0.1-0.1-0.3-0.2-0.4-0.3c-0.1-0.1-0.2-0.1-0.3-0.1
									c-0.1-0.1-0.2-0.1-0.4-0.2c-0.1-0.1-0.3-0.1-0.4-0.1c-0.1,0-0.2-0.1-0.3-0.1c-0.2,0-0.5-0.1-0.8-0.1h-9.5
									c-0.3,0-0.5,0-0.8,0.1c-0.1,0-0.2,0.1-0.3,0.1c-0.1,0-0.3,0.1-0.4,0.1c-0.1,0.1-0.3,0.1-0.4,0.2c-0.1,0-0.2,0.1-0.3,0.1
									c-0.1,0.1-0.3,0.2-0.4,0.3c0,0-0.1,0.1-0.1,0.1c-0.1,0.1-0.3,0.3-0.4,0.4c0,0,0,0-0.1,0.1c-0.1,0.2-0.3,0.4-0.4,0.6
									c0,0,0,0,0,0c-0.2,0.4-0.4,0.9-0.4,1.4C1392.8,877.6,1394.5,879.2,1396.5,879.2z"/>
							</g>
							<g>
								<path class="st8" d="M1420.2,872.6c0.1-0.1,0.2-0.1,0.4-0.2C1420.4,872.5,1420.3,872.6,1420.2,872.6z"/>
								<path class="st8" d="M1433.6,872.8c0.1,0.1,0.3,0.2,0.4,0.3C1433.9,873,1433.8,872.9,1433.6,872.8z"/>
								<path class="st8" d="M1421,872.3c0.1,0,0.2-0.1,0.3-0.1C1421.2,872.3,1421.1,872.3,1421,872.3z"/>
								<path class="st8" d="M1419.5,873.1c0.1-0.1,0.3-0.2,0.4-0.3C1419.8,872.9,1419.7,873,1419.5,873.1z"/>
								<path class="st8" d="M1435,874.3c0.2,0.4,0.4,0.9,0.4,1.4c-0.2,2-1.9,3.5-3.9,3.5h-9.5c-2,0-3.7-1.5-3.9-3.5
									c0.1-0.5,0.2-1,0.4-1.4c-0.3,0.5-0.4,1.1-0.4,1.8v0.8c0,2.2,1.8,3.9,3.9,3.9h9.5c2.2,0,3.9-1.8,3.9-3.9v-0.8
									C1435.5,875.4,1435.3,874.8,1435,874.3z"/>
								<path class="st8" d="M1432.3,872.2c0.1,0,0.2,0.1,0.3,0.1C1432.5,872.3,1432.4,872.3,1432.3,872.2z"/>
								<path class="st8" d="M1433,872.4c0.1,0.1,0.3,0.1,0.4,0.2C1433.3,872.6,1433.1,872.5,1433,872.4z"/>
								<path class="st8" d="M1434.2,873.2c0.1,0.1,0.3,0.3,0.4,0.4C1434.5,873.5,1434.3,873.3,1434.2,873.2z"/>
								<path class="st8" d="M1434.6,873.7c0.1,0.2,0.3,0.4,0.4,0.6C1434.9,874.1,1434.8,873.9,1434.6,873.7z"/>
								<path class="st8" d="M1418.6,874.3c0.1-0.2,0.2-0.4,0.4-0.6C1418.8,873.9,1418.7,874.1,1418.6,874.3z"/>
								<path class="st8" d="M1419,873.6c0.1-0.2,0.3-0.3,0.4-0.4C1419.2,873.3,1419.1,873.5,1419,873.6z"/>
								<path class="st7" d="M1422,879.2h9.5c2,0,3.7-1.5,3.9-3.5c-0.1-0.5-0.2-1-0.4-1.4c0,0,0,0,0,0c-0.1-0.2-0.2-0.4-0.4-0.6
									c0,0,0,0-0.1-0.1c-0.1-0.2-0.3-0.3-0.4-0.4c0,0-0.1-0.1-0.1-0.1c-0.1-0.1-0.3-0.2-0.4-0.3c-0.1-0.1-0.2-0.1-0.3-0.1
									c-0.1-0.1-0.2-0.1-0.4-0.2c-0.1-0.1-0.3-0.1-0.4-0.1c-0.1,0-0.2-0.1-0.3-0.1c-0.2,0-0.5-0.1-0.8-0.1h-9.5
									c-0.3,0-0.5,0-0.8,0.1c-0.1,0-0.2,0.1-0.3,0.1c-0.1,0-0.3,0.1-0.4,0.1c-0.1,0.1-0.3,0.1-0.4,0.2c-0.1,0-0.2,0.1-0.3,0.1
									c-0.1,0.1-0.3,0.2-0.4,0.3c0,0-0.1,0.1-0.1,0.1c-0.1,0.1-0.3,0.3-0.4,0.4c0,0,0,0-0.1,0.1c-0.1,0.2-0.3,0.4-0.4,0.6
									c0,0,0,0,0,0c-0.2,0.4-0.4,0.9-0.4,1.4C1418.4,877.6,1420,879.2,1422,879.2z"/>
							</g>
							<g>
								<path class="st8" d="M1445.7,872.6c0.1-0.1,0.2-0.1,0.4-0.2C1446,872.5,1445.8,872.6,1445.7,872.6z"/>
								<path class="st8" d="M1459.2,872.8c0.1,0.1,0.3,0.2,0.4,0.3C1459.4,873,1459.3,872.9,1459.2,872.8z"/>
								<path class="st8" d="M1446.5,872.3c0.1,0,0.2-0.1,0.3-0.1C1446.7,872.3,1446.6,872.3,1446.5,872.3z"/>
								<path class="st8" d="M1445,873.1c0.1-0.1,0.3-0.2,0.4-0.3C1445.3,872.9,1445.2,873,1445,873.1z"/>
								<path class="st8" d="M1460.5,874.3c0.2,0.4,0.4,0.9,0.4,1.4c-0.2,2-1.9,3.5-3.9,3.5h-9.5c-2,0-3.7-1.5-3.9-3.5
									c0.1-0.5,0.2-1,0.4-1.4c-0.3,0.5-0.4,1.1-0.4,1.8v0.8c0,2.2,1.8,3.9,3.9,3.9h9.5c2.2,0,3.9-1.8,3.9-3.9v-0.8
									C1461,875.4,1460.8,874.8,1460.5,874.3z"/>
								<path class="st8" d="M1457.8,872.2c0.1,0,0.2,0.1,0.3,0.1C1458,872.3,1457.9,872.3,1457.8,872.2z"/>
								<path class="st8" d="M1458.5,872.4c0.1,0.1,0.3,0.1,0.4,0.2C1458.8,872.6,1458.7,872.5,1458.5,872.4z"/>
								<path class="st8" d="M1459.7,873.2c0.1,0.1,0.3,0.3,0.4,0.4C1460,873.5,1459.9,873.3,1459.7,873.2z"/>
								<path class="st8" d="M1460.2,873.7c0.1,0.2,0.3,0.4,0.4,0.6C1460.4,874.1,1460.3,873.9,1460.2,873.7z"/>
								<path class="st8" d="M1444.1,874.3c0.1-0.2,0.2-0.4,0.4-0.6C1444.3,873.9,1444.2,874.1,1444.1,874.3z"/>
								<path class="st8" d="M1444.5,873.6c0.1-0.2,0.3-0.3,0.4-0.4C1444.8,873.3,1444.6,873.5,1444.5,873.6z"/>
								<path class="st7" d="M1447.6,879.2h9.5c2,0,3.7-1.5,3.9-3.5c-0.1-0.5-0.2-1-0.4-1.4c0,0,0,0,0,0c-0.1-0.2-0.2-0.4-0.4-0.6
									c0,0,0,0-0.1-0.1c-0.1-0.2-0.3-0.3-0.4-0.4c0,0-0.1-0.1-0.1-0.1c-0.1-0.1-0.3-0.2-0.4-0.3c-0.1-0.1-0.2-0.1-0.3-0.1
									c-0.1-0.1-0.2-0.1-0.4-0.2c-0.1-0.1-0.3-0.1-0.4-0.1c-0.1,0-0.2-0.1-0.3-0.1c-0.2,0-0.5-0.1-0.8-0.1h-9.5
									c-0.3,0-0.5,0-0.8,0.1c-0.1,0-0.2,0.1-0.3,0.1c-0.1,0-0.3,0.1-0.4,0.1c-0.1,0.1-0.3,0.1-0.4,0.2c-0.1,0-0.2,0.1-0.3,0.1
									c-0.1,0.1-0.3,0.2-0.4,0.3c0,0-0.1,0.1-0.1,0.1c-0.1,0.1-0.3,0.3-0.4,0.4c0,0,0,0-0.1,0.1c-0.1,0.2-0.3,0.4-0.4,0.6
									c0,0,0,0,0,0c-0.2,0.4-0.4,0.9-0.4,1.4C1443.9,877.6,1445.5,879.2,1447.6,879.2z"/>
							</g>
							<g>
								<path class="st8" d="M1471.2,872.6c0.1-0.1,0.2-0.1,0.4-0.2C1471.5,872.5,1471.4,872.6,1471.2,872.6z"/>
								<path class="st8" d="M1484.7,872.8c0.1,0.1,0.3,0.2,0.4,0.3C1485,873,1484.8,872.9,1484.7,872.8z"/>
								<path class="st8" d="M1472,872.3c0.1,0,0.2-0.1,0.3-0.1C1472.2,872.3,1472.1,872.3,1472,872.3z"/>
								<path class="st8" d="M1470.6,873.1c0.1-0.1,0.3-0.2,0.4-0.3C1470.8,872.9,1470.7,873,1470.6,873.1z"/>
								<path class="st8" d="M1486.1,874.3c0.2,0.4,0.4,0.9,0.4,1.4c-0.2,2-1.9,3.5-3.9,3.5h-9.5c-2,0-3.7-1.5-3.9-3.5
									c0.1-0.5,0.2-1,0.4-1.4c-0.3,0.5-0.4,1.1-0.4,1.8v0.8c0,2.2,1.8,3.9,3.9,3.9h9.5c2.2,0,3.9-1.8,3.9-3.9v-0.8
									C1486.5,875.4,1486.3,874.8,1486.1,874.3z"/>
								<path class="st8" d="M1483.3,872.2c0.1,0,0.2,0.1,0.3,0.1C1483.5,872.3,1483.4,872.3,1483.3,872.2z"/>
								<path class="st8" d="M1484,872.4c0.1,0.1,0.3,0.1,0.4,0.2C1484.3,872.6,1484.2,872.5,1484,872.4z"/>
								<path class="st8" d="M1485.2,873.2c0.1,0.1,0.3,0.3,0.4,0.4C1485.5,873.5,1485.4,873.3,1485.2,873.2z"/>
								<path class="st8" d="M1485.7,873.7c0.1,0.2,0.3,0.4,0.4,0.6C1485.9,874.1,1485.8,873.9,1485.7,873.7z"/>
								<path class="st8" d="M1469.6,874.3c0.1-0.2,0.2-0.4,0.4-0.6C1469.8,873.9,1469.7,874.1,1469.6,874.3z"/>
								<path class="st8" d="M1470,873.6c0.1-0.2,0.3-0.3,0.4-0.4C1470.3,873.3,1470.1,873.5,1470,873.6z"/>
								<path class="st7" d="M1473.1,879.2h9.5c2,0,3.7-1.5,3.9-3.5c-0.1-0.5-0.2-1-0.4-1.4c0,0,0,0,0,0c-0.1-0.2-0.2-0.4-0.4-0.6
									c0,0,0,0-0.1-0.1c-0.1-0.2-0.3-0.3-0.4-0.4c0,0-0.1-0.1-0.1-0.1c-0.1-0.1-0.3-0.2-0.4-0.3c-0.1-0.1-0.2-0.1-0.3-0.1
									c-0.1-0.1-0.2-0.1-0.4-0.2c-0.1-0.1-0.3-0.1-0.4-0.1c-0.1,0-0.2-0.1-0.3-0.1c-0.2,0-0.5-0.1-0.8-0.1h-9.5
									c-0.3,0-0.5,0-0.8,0.1c-0.1,0-0.2,0.1-0.3,0.1c-0.1,0-0.3,0.1-0.4,0.1c-0.1,0.1-0.3,0.1-0.4,0.2c-0.1,0-0.2,0.1-0.3,0.1
									c-0.1,0.1-0.3,0.2-0.4,0.3c0,0-0.1,0.1-0.1,0.1c-0.1,0.1-0.3,0.3-0.4,0.4c0,0,0,0-0.1,0.1c-0.1,0.2-0.3,0.4-0.4,0.6
									c0,0,0,0,0,0c-0.2,0.4-0.4,0.9-0.4,1.4C1469.4,877.6,1471.1,879.2,1473.1,879.2z"/>
							</g>
							<g>
								<path class="st8" d="M1496.8,872.6c0.1-0.1,0.2-0.1,0.4-0.2C1497,872.5,1496.9,872.6,1496.8,872.6z"/>
								<path class="st8" d="M1510.2,872.8c0.1,0.1,0.3,0.2,0.4,0.3C1510.5,873,1510.3,872.9,1510.2,872.8z"/>
								<path class="st8" d="M1497.5,872.3c0.1,0,0.2-0.1,0.3-0.1C1497.7,872.3,1497.6,872.3,1497.5,872.3z"/>
								<path class="st8" d="M1496.1,873.1c0.1-0.1,0.3-0.2,0.4-0.3C1496.4,872.9,1496.2,873,1496.1,873.1z"/>
								<path class="st8" d="M1511.6,874.3c0.2,0.4,0.4,0.9,0.4,1.4c-0.2,2-1.9,3.5-3.9,3.5h-9.5c-2,0-3.7-1.5-3.9-3.5
									c0.1-0.5,0.2-1,0.4-1.4c-0.3,0.5-0.4,1.1-0.4,1.8v0.8c0,2.2,1.8,3.9,3.9,3.9h9.5c2.2,0,3.9-1.8,3.9-3.9v-0.8
									C1512,875.4,1511.9,874.8,1511.6,874.3z"/>
								<path class="st8" d="M1508.9,872.2c0.1,0,0.2,0.1,0.3,0.1C1509.1,872.3,1509,872.3,1508.9,872.2z"/>
								<path class="st8" d="M1509.6,872.4c0.1,0.1,0.3,0.1,0.4,0.2C1509.8,872.6,1509.7,872.5,1509.6,872.4z"/>
								<path class="st8" d="M1510.8,873.2c0.1,0.1,0.3,0.3,0.4,0.4C1511,873.5,1510.9,873.3,1510.8,873.2z"/>
								<path class="st8" d="M1511.2,873.7c0.1,0.2,0.3,0.4,0.4,0.6C1511.5,874.1,1511.3,873.9,1511.2,873.7z"/>
								<path class="st8" d="M1495.1,874.3c0.1-0.2,0.2-0.4,0.4-0.6C1495.4,873.9,1495.2,874.1,1495.1,874.3z"/>
								<path class="st8" d="M1495.5,873.6c0.1-0.2,0.3-0.3,0.4-0.4C1495.8,873.3,1495.7,873.5,1495.5,873.6z"/>
								<path class="st7" d="M1498.6,879.2h9.5c2,0,3.7-1.5,3.9-3.5c-0.1-0.5-0.2-1-0.4-1.4c0,0,0,0,0,0c-0.1-0.2-0.2-0.4-0.4-0.6
									c0,0,0,0-0.1-0.1c-0.1-0.2-0.3-0.3-0.4-0.4c0,0-0.1-0.1-0.1-0.1c-0.1-0.1-0.3-0.2-0.4-0.3c-0.1-0.1-0.2-0.1-0.3-0.1
									c-0.1-0.1-0.2-0.1-0.4-0.2s-0.3-0.1-0.4-0.1c-0.1,0-0.2-0.1-0.3-0.1c-0.2,0-0.5-0.1-0.8-0.1h-9.5c-0.3,0-0.5,0-0.8,0.1
									c-0.1,0-0.2,0.1-0.3,0.1c-0.1,0-0.3,0.1-0.4,0.1c-0.1,0.1-0.3,0.1-0.4,0.2c-0.1,0-0.2,0.1-0.3,0.1c-0.1,0.1-0.3,0.2-0.4,0.3
									c0,0-0.1,0.1-0.1,0.1c-0.1,0.1-0.3,0.3-0.4,0.4c0,0,0,0-0.1,0.1c-0.1,0.2-0.3,0.4-0.4,0.6c0,0,0,0,0,0
									c-0.2,0.4-0.4,0.9-0.4,1.4C1494.9,877.6,1496.6,879.2,1498.6,879.2z"/>
							</g>
							<g>
								<path class="st8" d="M1522.3,872.6c0.1-0.1,0.2-0.1,0.4-0.2C1522.5,872.5,1522.4,872.6,1522.3,872.6z"/>
								<path class="st8" d="M1535.7,872.8c0.1,0.1,0.3,0.2,0.4,0.3C1536,873,1535.9,872.9,1535.7,872.8z"/>
								<path class="st8" d="M1523.1,872.3c0.1,0,0.2-0.1,0.3-0.1C1523.3,872.3,1523.2,872.3,1523.1,872.3z"/>
								<path class="st8" d="M1521.6,873.1c0.1-0.1,0.3-0.2,0.4-0.3C1521.9,872.9,1521.7,873,1521.6,873.1z"/>
								<path class="st8" d="M1537.1,874.3c0.2,0.4,0.4,0.9,0.4,1.4c-0.2,2-1.9,3.5-3.9,3.5h-9.5c-2,0-3.7-1.5-3.9-3.5
									c0.1-0.5,0.2-1,0.4-1.4c-0.3,0.5-0.4,1.1-0.4,1.8v0.8c0,2.2,1.8,3.9,3.9,3.9h9.5c2.2,0,3.9-1.8,3.9-3.9v-0.8
									C1537.6,875.4,1537.4,874.8,1537.1,874.3z"/>
								<path class="st8" d="M1534.4,872.2c0.1,0,0.2,0.1,0.3,0.1C1534.6,872.3,1534.5,872.3,1534.4,872.2z"/>
								<path class="st8" d="M1535.1,872.4c0.1,0.1,0.3,0.1,0.4,0.2C1535.3,872.6,1535.2,872.5,1535.1,872.4z"/>
								<path class="st8" d="M1536.3,873.2c0.1,0.1,0.3,0.3,0.4,0.4C1536.6,873.5,1536.4,873.3,1536.3,873.2z"/>
								<path class="st8" d="M1536.7,873.7c0.1,0.2,0.3,0.4,0.4,0.6C1537,874.1,1536.9,873.9,1536.7,873.7z"/>
								<path class="st8" d="M1520.7,874.3c0.1-0.2,0.2-0.4,0.4-0.6C1520.9,873.9,1520.8,874.1,1520.7,874.3z"/>
								<path class="st8" d="M1521.1,873.6c0.1-0.2,0.3-0.3,0.4-0.4C1521.3,873.3,1521.2,873.5,1521.1,873.6z"/>
								<path class="st7" d="M1524.1,879.2h9.5c2,0,3.7-1.5,3.9-3.5c-0.1-0.5-0.2-1-0.4-1.4c0,0,0,0,0,0c-0.1-0.2-0.2-0.4-0.4-0.6
									c0,0,0,0-0.1-0.1c-0.1-0.2-0.3-0.3-0.4-0.4c0,0-0.1-0.1-0.1-0.1c-0.1-0.1-0.3-0.2-0.4-0.3c-0.1-0.1-0.2-0.1-0.3-0.1
									c-0.1-0.1-0.2-0.1-0.4-0.2s-0.3-0.1-0.4-0.1c-0.1,0-0.2-0.1-0.3-0.1c-0.2,0-0.5-0.1-0.8-0.1h-9.5c-0.3,0-0.5,0-0.8,0.1
									c-0.1,0-0.2,0.1-0.3,0.1c-0.1,0-0.3,0.1-0.4,0.1c-0.1,0.1-0.3,0.1-0.4,0.2c-0.1,0-0.2,0.1-0.3,0.1c-0.1,0.1-0.3,0.2-0.4,0.3
									c0,0-0.1,0.1-0.1,0.1c-0.1,0.1-0.3,0.3-0.4,0.4c0,0,0,0-0.1,0.1c-0.1,0.2-0.3,0.4-0.4,0.6c0,0,0,0,0,0
									c-0.2,0.4-0.4,0.9-0.4,1.4C1520.5,877.6,1522.1,879.2,1524.1,879.2z"/>
							</g>
						</g>
						<g>
							<g>
								<path class="st8" d="M1394.7,885.6c0.1-0.1,0.2-0.1,0.4-0.2C1394.9,885.5,1394.8,885.5,1394.7,885.6z"/>
								<path class="st8" d="M1408.1,885.7c0.1,0.1,0.3,0.2,0.4,0.3C1408.4,885.9,1408.3,885.8,1408.1,885.7z"/>
								<path class="st8" d="M1395.5,885.3c0.1,0,0.2-0.1,0.3-0.1C1395.7,885.2,1395.6,885.3,1395.5,885.3z"/>
								<path class="st8" d="M1394,886.1c0.1-0.1,0.3-0.2,0.4-0.3C1394.3,885.8,1394.1,885.9,1394,886.1z"/>
								<path class="st8" d="M1409.5,887.3c0.2,0.4,0.4,0.9,0.4,1.4c-0.2,2-1.9,3.5-3.9,3.5h-9.5c-2,0-3.7-1.5-3.9-3.5
									c0.1-0.5,0.2-1,0.4-1.4c-0.3,0.5-0.4,1.1-0.4,1.8v0.8c0,2.2,1.8,3.9,3.9,3.9h9.5c2.2,0,3.9-1.8,3.9-3.9v-0.8
									C1409.9,888.4,1409.8,887.8,1409.5,887.3z"/>
								<path class="st8" d="M1406.8,885.2c0.1,0,0.2,0.1,0.3,0.1C1407,885.3,1406.9,885.2,1406.8,885.2z"/>
								<path class="st8" d="M1407.5,885.4c0.1,0.1,0.3,0.1,0.4,0.2C1407.7,885.5,1407.6,885.5,1407.5,885.4z"/>
								<path class="st8" d="M1408.7,886.2c0.1,0.1,0.3,0.3,0.4,0.4C1408.9,886.5,1408.8,886.3,1408.7,886.2z"/>
								<path class="st8" d="M1409.1,886.7c0.1,0.2,0.3,0.4,0.4,0.6C1409.4,887,1409.3,886.9,1409.1,886.7z"/>
								<path class="st8" d="M1393,887.3c0.1-0.2,0.2-0.4,0.4-0.6C1393.3,886.9,1393.1,887,1393,887.3z"/>
								<path class="st8" d="M1393.5,886.6c0.1-0.2,0.3-0.3,0.4-0.4C1393.7,886.3,1393.6,886.5,1393.5,886.6z"/>
								<path class="st7" d="M1396.5,892.2h9.5c2,0,3.7-1.5,3.9-3.5c-0.1-0.5-0.2-1-0.4-1.4c0,0,0,0,0,0c-0.1-0.2-0.2-0.4-0.4-0.6
									c0,0,0,0-0.1-0.1c-0.1-0.2-0.3-0.3-0.4-0.4c0,0-0.1-0.1-0.1-0.1c-0.1-0.1-0.3-0.2-0.4-0.3c-0.1-0.1-0.2-0.1-0.3-0.1
									c-0.1-0.1-0.2-0.1-0.4-0.2c-0.1-0.1-0.3-0.1-0.4-0.1c-0.1,0-0.2-0.1-0.3-0.1c-0.2,0-0.5-0.1-0.8-0.1h-9.5
									c-0.3,0-0.5,0-0.8,0.1c-0.1,0-0.2,0.1-0.3,0.1c-0.1,0-0.3,0.1-0.4,0.1c-0.1,0.1-0.3,0.1-0.4,0.2c-0.1,0-0.2,0.1-0.3,0.1
									c-0.1,0.1-0.3,0.2-0.4,0.3c0,0-0.1,0.1-0.1,0.1c-0.1,0.1-0.3,0.3-0.4,0.4c0,0,0,0-0.1,0.1c-0.1,0.2-0.3,0.4-0.4,0.6
									c0,0,0,0,0,0c-0.2,0.4-0.4,0.9-0.4,1.4C1392.8,890.6,1394.5,892.2,1396.5,892.2z"/>
							</g>
							<g>
								<path class="st8" d="M1420.2,885.6c0.1-0.1,0.2-0.1,0.4-0.2C1420.4,885.5,1420.3,885.5,1420.2,885.6z"/>
								<path class="st8" d="M1433.6,885.7c0.1,0.1,0.3,0.2,0.4,0.3C1433.9,885.9,1433.8,885.8,1433.6,885.7z"/>
								<path class="st8" d="M1421,885.3c0.1,0,0.2-0.1,0.3-0.1C1421.2,885.2,1421.1,885.3,1421,885.3z"/>
								<path class="st8" d="M1419.5,886.1c0.1-0.1,0.3-0.2,0.4-0.3C1419.8,885.8,1419.7,885.9,1419.5,886.1z"/>
								<path class="st8" d="M1435,887.3c0.2,0.4,0.4,0.9,0.4,1.4c-0.2,2-1.9,3.5-3.9,3.5h-9.5c-2,0-3.7-1.5-3.9-3.5
									c0.1-0.5,0.2-1,0.4-1.4c-0.3,0.5-0.4,1.1-0.4,1.8v0.8c0,2.2,1.8,3.9,3.9,3.9h9.5c2.2,0,3.9-1.8,3.9-3.9v-0.8
									C1435.5,888.4,1435.3,887.8,1435,887.3z"/>
								<path class="st8" d="M1432.3,885.2c0.1,0,0.2,0.1,0.3,0.1C1432.5,885.3,1432.4,885.2,1432.3,885.2z"/>
								<path class="st8" d="M1433,885.4c0.1,0.1,0.3,0.1,0.4,0.2C1433.3,885.5,1433.1,885.5,1433,885.4z"/>
								<path class="st8" d="M1434.2,886.2c0.1,0.1,0.3,0.3,0.4,0.4C1434.5,886.5,1434.3,886.3,1434.2,886.2z"/>
								<path class="st8" d="M1434.6,886.7c0.1,0.2,0.3,0.4,0.4,0.6C1434.9,887,1434.8,886.9,1434.6,886.7z"/>
								<path class="st8" d="M1418.6,887.3c0.1-0.2,0.2-0.4,0.4-0.6C1418.8,886.9,1418.7,887,1418.6,887.3z"/>
								<path class="st8" d="M1419,886.6c0.1-0.2,0.3-0.3,0.4-0.4C1419.2,886.3,1419.1,886.5,1419,886.6z"/>
								<path class="st7" d="M1422,892.2h9.5c2,0,3.7-1.5,3.9-3.5c-0.1-0.5-0.2-1-0.4-1.4c0,0,0,0,0,0c-0.1-0.2-0.2-0.4-0.4-0.6
									c0,0,0,0-0.1-0.1c-0.1-0.2-0.3-0.3-0.4-0.4c0,0-0.1-0.1-0.1-0.1c-0.1-0.1-0.3-0.2-0.4-0.3c-0.1-0.1-0.2-0.1-0.3-0.1
									c-0.1-0.1-0.2-0.1-0.4-0.2c-0.1-0.1-0.3-0.1-0.4-0.1c-0.1,0-0.2-0.1-0.3-0.1c-0.2,0-0.5-0.1-0.8-0.1h-9.5
									c-0.3,0-0.5,0-0.8,0.1c-0.1,0-0.2,0.1-0.3,0.1c-0.1,0-0.3,0.1-0.4,0.1c-0.1,0.1-0.3,0.1-0.4,0.2c-0.1,0-0.2,0.1-0.3,0.1
									c-0.1,0.1-0.3,0.2-0.4,0.3c0,0-0.1,0.1-0.1,0.1c-0.1,0.1-0.3,0.3-0.4,0.4c0,0,0,0-0.1,0.1c-0.1,0.2-0.3,0.4-0.4,0.6
									c0,0,0,0,0,0c-0.2,0.4-0.4,0.9-0.4,1.4C1418.4,890.6,1420,892.2,1422,892.2z"/>
							</g>
							<g>
								<path class="st8" d="M1445.7,885.6c0.1-0.1,0.2-0.1,0.4-0.2C1446,885.5,1445.8,885.5,1445.7,885.6z"/>
								<path class="st8" d="M1459.2,885.7c0.1,0.1,0.3,0.2,0.4,0.3C1459.4,885.9,1459.3,885.8,1459.2,885.7z"/>
								<path class="st8" d="M1446.5,885.3c0.1,0,0.2-0.1,0.3-0.1C1446.7,885.2,1446.6,885.3,1446.5,885.3z"/>
								<path class="st8" d="M1445,886.1c0.1-0.1,0.3-0.2,0.4-0.3C1445.3,885.8,1445.2,885.9,1445,886.1z"/>
								<path class="st8" d="M1460.5,887.3c0.2,0.4,0.4,0.9,0.4,1.4c-0.2,2-1.9,3.5-3.9,3.5h-9.5c-2,0-3.7-1.5-3.9-3.5
									c0.1-0.5,0.2-1,0.4-1.4c-0.3,0.5-0.4,1.1-0.4,1.8v0.8c0,2.2,1.8,3.9,3.9,3.9h9.5c2.2,0,3.9-1.8,3.9-3.9v-0.8
									C1461,888.4,1460.8,887.8,1460.5,887.3z"/>
								<path class="st8" d="M1457.8,885.2c0.1,0,0.2,0.1,0.3,0.1C1458,885.3,1457.9,885.2,1457.8,885.2z"/>
								<path class="st8" d="M1458.5,885.4c0.1,0.1,0.3,0.1,0.4,0.2C1458.8,885.5,1458.7,885.5,1458.5,885.4z"/>
								<path class="st8" d="M1459.7,886.2c0.1,0.1,0.3,0.3,0.4,0.4C1460,886.5,1459.9,886.3,1459.7,886.2z"/>
								<path class="st8" d="M1460.2,886.7c0.1,0.2,0.3,0.4,0.4,0.6C1460.4,887,1460.3,886.9,1460.2,886.7z"/>
								<path class="st8" d="M1444.1,887.3c0.1-0.2,0.2-0.4,0.4-0.6C1444.3,886.9,1444.2,887,1444.1,887.3z"/>
								<path class="st8" d="M1444.5,886.6c0.1-0.2,0.3-0.3,0.4-0.4C1444.8,886.3,1444.6,886.5,1444.5,886.6z"/>
								<path class="st7" d="M1447.6,892.2h9.5c2,0,3.7-1.5,3.9-3.5c-0.1-0.5-0.2-1-0.4-1.4c0,0,0,0,0,0c-0.1-0.2-0.2-0.4-0.4-0.6
									c0,0,0,0-0.1-0.1c-0.1-0.2-0.3-0.3-0.4-0.4c0,0-0.1-0.1-0.1-0.1c-0.1-0.1-0.3-0.2-0.4-0.3c-0.1-0.1-0.2-0.1-0.3-0.1
									c-0.1-0.1-0.2-0.1-0.4-0.2c-0.1-0.1-0.3-0.1-0.4-0.1c-0.1,0-0.2-0.1-0.3-0.1c-0.2,0-0.5-0.1-0.8-0.1h-9.5
									c-0.3,0-0.5,0-0.8,0.1c-0.1,0-0.2,0.1-0.3,0.1c-0.1,0-0.3,0.1-0.4,0.1c-0.1,0.1-0.3,0.1-0.4,0.2c-0.1,0-0.2,0.1-0.3,0.1
									c-0.1,0.1-0.3,0.2-0.4,0.3c0,0-0.1,0.1-0.1,0.1c-0.1,0.1-0.3,0.3-0.4,0.4c0,0,0,0-0.1,0.1c-0.1,0.2-0.3,0.4-0.4,0.6
									c0,0,0,0,0,0c-0.2,0.4-0.4,0.9-0.4,1.4C1443.9,890.6,1445.5,892.2,1447.6,892.2z"/>
							</g>
							<g>
								<path class="st8" d="M1471.2,885.6c0.1-0.1,0.2-0.1,0.4-0.2C1471.5,885.5,1471.4,885.5,1471.2,885.6z"/>
								<path class="st8" d="M1484.7,885.7c0.1,0.1,0.3,0.2,0.4,0.3C1485,885.9,1484.8,885.8,1484.7,885.7z"/>
								<path class="st8" d="M1472,885.3c0.1,0,0.2-0.1,0.3-0.1C1472.2,885.2,1472.1,885.3,1472,885.3z"/>
								<path class="st8" d="M1470.6,886.1c0.1-0.1,0.3-0.2,0.4-0.3C1470.8,885.8,1470.7,885.9,1470.6,886.1z"/>
								<path class="st8" d="M1486.1,887.3c0.2,0.4,0.4,0.9,0.4,1.4c-0.2,2-1.9,3.5-3.9,3.5h-9.5c-2,0-3.7-1.5-3.9-3.5
									c0.1-0.5,0.2-1,0.4-1.4c-0.3,0.5-0.4,1.1-0.4,1.8v0.8c0,2.2,1.8,3.9,3.9,3.9h9.5c2.2,0,3.9-1.8,3.9-3.9v-0.8
									C1486.5,888.4,1486.3,887.8,1486.1,887.3z"/>
								<path class="st8" d="M1483.3,885.2c0.1,0,0.2,0.1,0.3,0.1C1483.5,885.3,1483.4,885.2,1483.3,885.2z"/>
								<path class="st8" d="M1484,885.4c0.1,0.1,0.3,0.1,0.4,0.2C1484.3,885.5,1484.2,885.5,1484,885.4z"/>
								<path class="st8" d="M1485.2,886.2c0.1,0.1,0.3,0.3,0.4,0.4C1485.5,886.5,1485.4,886.3,1485.2,886.2z"/>
								<path class="st8" d="M1485.7,886.7c0.1,0.2,0.3,0.4,0.4,0.6C1485.9,887,1485.8,886.9,1485.7,886.7z"/>
								<path class="st8" d="M1469.6,887.3c0.1-0.2,0.2-0.4,0.4-0.6C1469.8,886.9,1469.7,887,1469.6,887.3z"/>
								<path class="st8" d="M1470,886.6c0.1-0.2,0.3-0.3,0.4-0.4C1470.3,886.3,1470.1,886.5,1470,886.6z"/>
								<path class="st7" d="M1473.1,892.2h9.5c2,0,3.7-1.5,3.9-3.5c-0.1-0.5-0.2-1-0.4-1.4c0,0,0,0,0,0c-0.1-0.2-0.2-0.4-0.4-0.6
									c0,0,0,0-0.1-0.1c-0.1-0.2-0.3-0.3-0.4-0.4c0,0-0.1-0.1-0.1-0.1c-0.1-0.1-0.3-0.2-0.4-0.3c-0.1-0.1-0.2-0.1-0.3-0.1
									c-0.1-0.1-0.2-0.1-0.4-0.2c-0.1-0.1-0.3-0.1-0.4-0.1c-0.1,0-0.2-0.1-0.3-0.1c-0.2,0-0.5-0.1-0.8-0.1h-9.5
									c-0.3,0-0.5,0-0.8,0.1c-0.1,0-0.2,0.1-0.3,0.1c-0.1,0-0.3,0.1-0.4,0.1c-0.1,0.1-0.3,0.1-0.4,0.2c-0.1,0-0.2,0.1-0.3,0.1
									c-0.1,0.1-0.3,0.2-0.4,0.3c0,0-0.1,0.1-0.1,0.1c-0.1,0.1-0.3,0.3-0.4,0.4c0,0,0,0-0.1,0.1c-0.1,0.2-0.3,0.4-0.4,0.6
									c0,0,0,0,0,0c-0.2,0.4-0.4,0.9-0.4,1.4C1469.4,890.6,1471.1,892.2,1473.1,892.2z"/>
							</g>
							<g>
								<path class="st8" d="M1496.8,885.6c0.1-0.1,0.2-0.1,0.4-0.2C1497,885.5,1496.9,885.5,1496.8,885.6z"/>
								<path class="st8" d="M1510.2,885.7c0.1,0.1,0.3,0.2,0.4,0.3C1510.5,885.9,1510.3,885.8,1510.2,885.7z"/>
								<path class="st8" d="M1497.5,885.3c0.1,0,0.2-0.1,0.3-0.1C1497.7,885.2,1497.6,885.3,1497.5,885.3z"/>
								<path class="st8" d="M1496.1,886.1c0.1-0.1,0.3-0.2,0.4-0.3C1496.4,885.8,1496.2,885.9,1496.1,886.1z"/>
								<path class="st8" d="M1511.6,887.3c0.2,0.4,0.4,0.9,0.4,1.4c-0.2,2-1.9,3.5-3.9,3.5h-9.5c-2,0-3.7-1.5-3.9-3.5
									c0.1-0.5,0.2-1,0.4-1.4c-0.3,0.5-0.4,1.1-0.4,1.8v0.8c0,2.2,1.8,3.9,3.9,3.9h9.5c2.2,0,3.9-1.8,3.9-3.9v-0.8
									C1512,888.4,1511.9,887.8,1511.6,887.3z"/>
								<path class="st8" d="M1508.9,885.2c0.1,0,0.2,0.1,0.3,0.1C1509.1,885.3,1509,885.2,1508.9,885.2z"/>
								<path class="st8" d="M1509.6,885.4c0.1,0.1,0.3,0.1,0.4,0.2C1509.8,885.5,1509.7,885.5,1509.6,885.4z"/>
								<path class="st8" d="M1510.8,886.2c0.1,0.1,0.3,0.3,0.4,0.4C1511,886.5,1510.9,886.3,1510.8,886.2z"/>
								<path class="st8" d="M1511.2,886.7c0.1,0.2,0.3,0.4,0.4,0.6C1511.5,887,1511.3,886.9,1511.2,886.7z"/>
								<path class="st8" d="M1495.1,887.3c0.1-0.2,0.2-0.4,0.4-0.6C1495.4,886.9,1495.2,887,1495.1,887.3z"/>
								<path class="st8" d="M1495.5,886.6c0.1-0.2,0.3-0.3,0.4-0.4C1495.8,886.3,1495.7,886.5,1495.5,886.6z"/>
								<path class="st7" d="M1498.6,892.2h9.5c2,0,3.7-1.5,3.9-3.5c-0.1-0.5-0.2-1-0.4-1.4c0,0,0,0,0,0c-0.1-0.2-0.2-0.4-0.4-0.6
									c0,0,0,0-0.1-0.1c-0.1-0.2-0.3-0.3-0.4-0.4c0,0-0.1-0.1-0.1-0.1c-0.1-0.1-0.3-0.2-0.4-0.3c-0.1-0.1-0.2-0.1-0.3-0.1
									c-0.1-0.1-0.2-0.1-0.4-0.2c-0.1-0.1-0.3-0.1-0.4-0.1c-0.1,0-0.2-0.1-0.3-0.1c-0.2,0-0.5-0.1-0.8-0.1h-9.5
									c-0.3,0-0.5,0-0.8,0.1c-0.1,0-0.2,0.1-0.3,0.1c-0.1,0-0.3,0.1-0.4,0.1c-0.1,0.1-0.3,0.1-0.4,0.2c-0.1,0-0.2,0.1-0.3,0.1
									c-0.1,0.1-0.3,0.2-0.4,0.3c0,0-0.1,0.1-0.1,0.1c-0.1,0.1-0.3,0.3-0.4,0.4c0,0,0,0-0.1,0.1c-0.1,0.2-0.3,0.4-0.4,0.6
									c0,0,0,0,0,0c-0.2,0.4-0.4,0.9-0.4,1.4C1494.9,890.6,1496.6,892.2,1498.6,892.2z"/>
							</g>
							<g>
								<path class="st8" d="M1522.3,885.6c0.1-0.1,0.2-0.1,0.4-0.2C1522.5,885.5,1522.4,885.5,1522.3,885.6z"/>
								<path class="st8" d="M1535.7,885.7c0.1,0.1,0.3,0.2,0.4,0.3C1536,885.9,1535.9,885.8,1535.7,885.7z"/>
								<path class="st8" d="M1523.1,885.3c0.1,0,0.2-0.1,0.3-0.1C1523.3,885.2,1523.2,885.3,1523.1,885.3z"/>
								<path class="st8" d="M1521.6,886.1c0.1-0.1,0.3-0.2,0.4-0.3C1521.9,885.8,1521.7,885.9,1521.6,886.1z"/>
								<path class="st8" d="M1537.1,887.3c0.2,0.4,0.4,0.9,0.4,1.4c-0.2,2-1.9,3.5-3.9,3.5h-9.5c-2,0-3.7-1.5-3.9-3.5
									c0.1-0.5,0.2-1,0.4-1.4c-0.3,0.5-0.4,1.1-0.4,1.8v0.8c0,2.2,1.8,3.9,3.9,3.9h9.5c2.2,0,3.9-1.8,3.9-3.9v-0.8
									C1537.6,888.4,1537.4,887.8,1537.1,887.3z"/>
								<path class="st8" d="M1534.4,885.2c0.1,0,0.2,0.1,0.3,0.1C1534.6,885.3,1534.5,885.2,1534.4,885.2z"/>
								<path class="st8" d="M1535.1,885.4c0.1,0.1,0.3,0.1,0.4,0.2C1535.3,885.5,1535.2,885.5,1535.1,885.4z"/>
								<path class="st8" d="M1536.3,886.2c0.1,0.1,0.3,0.3,0.4,0.4C1536.6,886.5,1536.4,886.3,1536.3,886.2z"/>
								<path class="st8" d="M1536.7,886.7c0.1,0.2,0.3,0.4,0.4,0.6C1537,887,1536.9,886.9,1536.7,886.7z"/>
								<path class="st8" d="M1520.7,887.3c0.1-0.2,0.2-0.4,0.4-0.6C1520.9,886.9,1520.8,887,1520.7,887.3z"/>
								<path class="st8" d="M1521.1,886.6c0.1-0.2,0.3-0.3,0.4-0.4C1521.3,886.3,1521.2,886.5,1521.1,886.6z"/>
								<path class="st7" d="M1524.1,892.2h9.5c2,0,3.7-1.5,3.9-3.5c-0.1-0.5-0.2-1-0.4-1.4c0,0,0,0,0,0c-0.1-0.2-0.2-0.4-0.4-0.6
									c0,0,0,0-0.1-0.1c-0.1-0.2-0.3-0.3-0.4-0.4c0,0-0.1-0.1-0.1-0.1c-0.1-0.1-0.3-0.2-0.4-0.3c-0.1-0.1-0.2-0.1-0.3-0.1
									c-0.1-0.1-0.2-0.1-0.4-0.2c-0.1-0.1-0.3-0.1-0.4-0.1c-0.1,0-0.2-0.1-0.3-0.1c-0.2,0-0.5-0.1-0.8-0.1h-9.5
									c-0.3,0-0.5,0-0.8,0.1c-0.1,0-0.2,0.1-0.3,0.1c-0.1,0-0.3,0.1-0.4,0.1c-0.1,0.1-0.3,0.1-0.4,0.2c-0.1,0-0.2,0.1-0.3,0.1
									c-0.1,0.1-0.3,0.2-0.4,0.3c0,0-0.1,0.1-0.1,0.1c-0.1,0.1-0.3,0.3-0.4,0.4c0,0,0,0-0.1,0.1c-0.1,0.2-0.3,0.4-0.4,0.6
									c0,0,0,0,0,0c-0.2,0.4-0.4,0.9-0.4,1.4C1520.5,890.6,1522.1,892.2,1524.1,892.2z"/>
							</g>
						</g>
					</g>
				</g>
				<g>
					<path class="st8" d="M1561.4,860.6l-1-4c-0.3-1.4-1.6-2.4-3-2.4h-4.9c-1.3,0-2.5,0.9-2.9,2.2l-1.3,4c-0.6,1.8,0.8,3.6,2.6,3.6
						h7.8C1560.5,864,1561.8,862.4,1561.4,860.6z"/>
					<path class="st10" d="M1560.4,856.7c0-0.2-0.1-0.4-0.2-0.6h-10.5c-0.1,0.1-0.1,0.2-0.1,0.4l-1.3,4c-0.6,1.8,0.8,3.6,2.6,3.6
						h7.8c1.8,0,3.1-1.7,2.7-3.4L1560.4,856.7z"/>
				</g>
				<g>
					<path class="st8" d="M1561.4,875.7l-1-4c-0.3-1.4-1.6-2.4-3-2.4h-4.9c-1.3,0-2.5,0.9-2.9,2.2l-1.3,4c-0.6,1.8,0.8,3.6,2.6,3.6
						h7.8C1560.5,879.1,1561.8,877.5,1561.4,875.7z"/>
					<path class="st10" d="M1560.4,871.8c0-0.2-0.1-0.4-0.2-0.6h-10.5c-0.1,0.1-0.1,0.2-0.1,0.4l-1.3,4c-0.6,1.8,0.8,3.6,2.6,3.6
						h7.8c1.8,0,3.1-1.7,2.7-3.4L1560.4,871.8z"/>
				</g>
				<g>
					<path class="st8" d="M1561.4,890.8l-1-4c-0.3-1.4-1.6-2.4-3-2.4h-4.9c-1.3,0-2.5,0.9-2.9,2.2l-1.3,4c-0.6,1.8,0.8,3.6,2.6,3.6
						h7.8C1560.5,894.2,1561.8,892.6,1561.4,890.8z"/>
					<path class="st10" d="M1560.4,886.9c0-0.2-0.1-0.4-0.2-0.6h-10.5c-0.1,0.1-0.1,0.2-0.1,0.4l-1.3,4c-0.6,1.8,0.8,3.6,2.6,3.6
						h7.8c1.8,0,3.1-1.7,2.7-3.4L1560.4,886.9z"/>
				</g>
				<path class="st11" d="M1310,766.3L1310,766.3c8.1,0,14.8,6.6,14.8,14.8v216.4h13v-82.3c0-14.6,11.9-26.5,26.5-26.5l0,0"/>
				<path class="st4" d="M2003.4,1444.8H268.6c-32.4,0-58.6,26.2-58.6,58.6l0,0c0,32.4,26.2,58.6,58.6,58.6h1734.8
					c32.4,0,58.6-26.2,58.6-58.6l0,0C2062,1471,2035.8,1444.8,2003.4,1444.8z"/>
				<path class="st5" d="M211.7,1517.5c6.3,25.5,29.4,44.4,56.9,44.4h1734.8c27.5,0,50.5-18.9,56.9-44.4H211.7z"/>
			</g>
			<path class="st11" d="M858.1,957.1v240.6c0,142.3,115.4,257.7,257.7,257.7H1216c17.8,0,32.1-14.4,32.1-32.1v-11.9
				c0-17.8-14.4-32.1-32.1-32.1h0c-17.8,0-32.1,14.4-32.1,32.1l0,0c0,42.1,34.1,76.3,76.3,76.3h332.1v-73
				c0-28.9,23.4-52.3,52.3-52.3l0,0"/>
			<path class="st11" d="M824.3,957.1v300.8c0,110,89.2,199.2,199.3,199.2h585.7v-174.7c0-19.5,15.8-35.3,35.3-35.3l0,0"/>
		</g>
	</g>
</g>
</svg>
